<?xml version="1.0" encoding="UTF-8" standalone="no"?>
<svg
   width="200"
   height="600"
   viewBox="0 0 200 600"
   version="1.1"
   id="svg1"
   sodipodi:docname="arrowright.svg"
   inkscape:version="1.3.2 (1:1.3.2+202311252150+091e20ef0f)"
   xmlns:inkscape="http://www.inkscape.org/namespaces/inkscape"
   xmlns:sodipodi="http://sodipodi.sourceforge.net/DTD/sodipodi-0.dtd"
   xmlns="http://www.w3.org/2000/svg"
   xmlns:svg="http://www.w3.org/2000/svg">
  <defs
     id="defs1" />
  <sodipodi:namedview
     id="namedview1"
     pagecolor="#ffffff"
     bordercolor="#666666"
     borderopacity="1.0"
     inkscape:showpageshadow="2"
     inkscape:pageopacity="0.0"
     inkscape:pagecheckerboard="0"
     inkscape:deskcolor="#d1d1d1"
     inkscape:zoom="1.9"
     inkscape:cx="100"
     inkscape:cy="300"
     inkscape:window-width="2560"
     inkscape:window-height="1368"
     inkscape:window-x="0"
     inkscape:window-y="0"
     inkscape:window-maximized="1"
     inkscape:current-layer="svg1" />
  <path
     style="fill:#964b00;stroke-width:0.486106"
     d="m 110.55822,152.99997 c 0.58094,-0.003 1.15819,-0.18971 1.64382,-0.55899 l 66.73726,-50.31892 c 0.66596,-0.50837 1.0607,-1.29434 1.0607,-2.122077 0,-0.827727 -0.39178,-1.609566 -1.0607,-2.117933 L 112.20732,47.554848 C 111.71675,47.185085 111.12717,47 110.54767,47 c -0.5721,0 -1.1506,0.179538 -1.64119,0.536219 -0.97079,0.727407 -1.33696,2.000352 -0.89183,3.117893 l 13.41974,33.321657 H 20 v 32.046361 h 101.43439 l -13.42502,33.32581 c -0.44513,1.11705 -0.0789,2.39298 0.89184,3.11168 0.4923,0.36371 1.07609,0.5432 1.65701,0.54035 z"
     id="path1" />
  <path
     style="fill:#b39700;stroke-width:0.486106"
     d="m 110.55822,352.99997 c 0.58094,-0.003 1.15819,-0.18971 1.64382,-0.55899 l 66.73726,-50.31892 c 0.66596,-0.50837 1.0607,-1.29434 1.0607,-2.12208 0,-0.82772 -0.39178,-1.60956 -1.0607,-2.11793 l -66.73198,-50.3272 C 111.71675,247.18508 111.12717,247 110.54767,247 c -0.5721,0 -1.1506,0.17954 -1.64119,0.53622 -0.97079,0.72741 -1.33696,2.00035 -0.89183,3.11789 l 13.41974,33.32166 H 20 v 32.04636 h 101.43439 l -13.42502,33.32581 c -0.44513,1.11705 -0.0789,2.39298 0.89184,3.11168 0.4923,0.36371 1.07609,0.5432 1.65701,0.54035 z"
     id="path2" />
  <path
     style="fill:#000000;stroke-width:0.486106"
     d="m 110.55822,552.99997 c 0.58094,-0.003 1.15819,-0.18971 1.64382,-0.55899 l 66.73726,-50.31892 c 0.66596,-0.50837 1.0607,-1.29434 1.0607,-2.12208 0,-0.82772 -0.39178,-1.60956 -1.0607,-2.11793 l -66.73198,-50.3272 C 111.71675,447.18508 111.12717,447 110.54767,447 c -0.5721,0 -1.1506,0.17954 -1.64119,0.53622 -0.97079,0.72741 -1.33696,2.00035 -0.89183,3.11789 l 13.41974,33.32166 H 20 v 32.04636 h 101.43439 l -13.42502,33.32581 c -0.44513,1.11705 -0.0789,2.39298 0.89184,3.11168 0.4923,0.36371 1.07609,0.5432 1.65701,0.54035 z"
     id="path3" />
</svg>
