<?xml version="1.0" encoding="UTF-8" standalone="no"?>
<svg
   width="200"
   height="600"
   viewBox="0 0 200 600"
   version="1.1"
   id="svg1"
   sodipodi:docname="arrowleft.svg"
   inkscape:version="1.3.2 (1:1.3.2+202311252150+091e20ef0f)"
   xmlns:inkscape="http://www.inkscape.org/namespaces/inkscape"
   xmlns:sodipodi="http://sodipodi.sourceforge.net/DTD/sodipodi-0.dtd"
   xmlns="http://www.w3.org/2000/svg"
   xmlns:svg="http://www.w3.org/2000/svg">
  <defs
     id="defs1" />
  <sodipodi:namedview
     id="namedview1"
     pagecolor="#ffffff"
     bordercolor="#666666"
     borderopacity="1.0"
     inkscape:showpageshadow="2"
     inkscape:pageopacity="0.0"
     inkscape:pagecheckerboard="0"
     inkscape:deskcolor="#d1d1d1"
     inkscape:zoom="1.9"
     inkscape:cx="100"
     inkscape:cy="300"
     inkscape:window-width="2560"
     inkscape:window-height="1368"
     inkscape:window-x="0"
     inkscape:window-y="0"
     inkscape:window-maximized="1"
     inkscape:current-layer="svg1" />
  <path
     style="fill:#964b00;stroke-width:0.486106"
     d="m 89.441778,152.99997 c -0.580934,-0.003 -1.158187,-0.18971 -1.643822,-0.55899 L 21.060702,102.12206 C 20.394738,101.61369 20,100.82772 20,99.999983 20,99.172256 20.391778,98.390417 21.060702,97.88205 L 87.792676,47.554848 C 88.283253,47.185085 88.872827,47 89.452329,47 c 0.572098,0 1.150604,0.179538 1.641191,0.536219 0.970791,0.727407 1.33696,2.000352 0.891831,3.117893 L 78.565609,83.975769 H 180 V 116.02213 H 78.565609 l 13.425022,33.32581 c 0.445129,1.11705 0.07893,2.39298 -0.89184,3.11168 -0.492302,0.36371 -1.076089,0.5432 -1.657013,0.54035 z"
     id="path1" />
  <path
     style="fill:#b39700;stroke-width:0.486106"
     d="m 89.441778,352.99997 c -0.580934,-0.003 -1.158187,-0.18971 -1.643822,-0.55899 L 21.060702,302.12206 C 20.394738,301.61369 20,300.82772 20,299.99998 c 0,-0.82772 0.391778,-1.60956 1.060702,-2.11793 l 66.731974,-50.3272 C 88.283253,247.18508 88.872827,247 89.452329,247 c 0.572098,0 1.150604,0.17954 1.641191,0.53622 0.970791,0.72741 1.33696,2.00035 0.891831,3.11789 L 78.565609,283.97577 H 180 v 32.04636 H 78.565609 l 13.425022,33.32581 c 0.445129,1.11705 0.07893,2.39298 -0.89184,3.11168 -0.492302,0.36371 -1.076089,0.5432 -1.657013,0.54035 z"
     id="path2" />
  <path
     style="fill:#000000;stroke-width:0.486106"
     d="m 89.441778,552.99997 c -0.580934,-0.003 -1.158187,-0.18971 -1.643822,-0.55899 L 21.060702,502.12206 C 20.394738,501.61369 20,500.82772 20,499.99998 c 0,-0.82772 0.391778,-1.60956 1.060702,-2.11793 l 66.731974,-50.3272 C 88.283253,447.18508 88.872827,447 89.452329,447 c 0.572098,0 1.150604,0.17954 1.641191,0.53622 0.970791,0.72741 1.33696,2.00035 0.891831,3.11789 L 78.565609,483.97577 H 180 v 32.04636 H 78.565609 l 13.425022,33.32581 c 0.445129,1.11705 0.07893,2.39298 -0.89184,3.11168 -0.492302,0.36371 -1.076089,0.5432 -1.657013,0.54035 z"
     id="path3" />
</svg>
