<?xml version="1.0" encoding="UTF-8"?>
<svg
   width="200"
   height="600"
   viewBox="0 0 200 600"
   xmlns="http://www.w3.org/2000/svg"
   xmlns:svg="http://www.w3.org/2000/svg">
<path
   d="m 169.28184,52.203322 c 0.26237,-6.35624 -2.02545,-12.787479 -6.88279,-17.643722 -9.20832,-9.206422 -24.08041,-9.150173 -33.28873,0.05625 -7.27663,7.274988 -8.90825,17.999971 -4.53851,26.924956 L 61.538907,124.57821 c -8.927003,-4.36874 -19.65441,-2.7375 -26.931043,4.53749 -9.208316,9.18749 -9.245825,24.09371 -0.03751,33.29995 4.85734,4.85624 11.271279,7.12499 17.628957,6.86268 -0.26256,6.35605 2.025454,12.78747 6.882794,17.62497 9.208316,9.20623 24.080404,9.14998 33.28872,-0.0563 7.276821,-7.27518 8.889495,-17.99997 4.519952,-26.92515 L 159.92368,96.903251 c 8.92719,4.368739 19.65441,2.737495 26.93123,-4.537494 9.20832,-9.206422 9.24583,-24.112649 0.0373,-33.318696 -4.85753,-4.837305 -11.25271,-7.106239 -17.6104,-6.843739 z"
   style="fill:#964b00;fill-opacity:1;stroke-width:0.187521" /><path
   d="m 169.28183,273.66607 c 0.26238,-6.35625 -2.02545,-12.78748 -6.88279,-17.64372 -9.20831,-9.20643 -24.0804,-9.15018 -33.28872,0.0562 -7.27663,7.27498 -8.90825,17.99997 -4.53852,26.92495 l -63.032893,63.0374 c -8.927003,-4.36874 -19.65441,-2.7375 -26.931043,4.53749 -9.208317,9.18749 -9.245825,24.09371 -0.03751,33.29996 4.85734,4.85624 11.271279,7.12498 17.628956,6.86267 -0.262559,6.35605 2.025454,12.78748 6.882794,17.62497 9.208316,9.20623 24.080404,9.14998 33.288724,-0.0562 7.276817,-7.27518 8.889492,-17.99997 4.51995,-26.92514 l 63.032902,-63.01866 c 8.92719,4.36875 19.6544,2.7375 26.93123,-4.53749 9.20831,-9.20642 9.24582,-24.11265 0.0373,-33.31869 -4.85752,-4.83731 -11.25271,-7.10624 -17.61039,-6.84374 z"
   style="fill:#b39700;fill-opacity:1;stroke-width:0.187521" /><path
   d="m 169.28184,495.12883 c 0.26237,-6.35625 -2.02545,-12.78748 -6.88279,-17.64372 -9.20832,-9.20643 -24.08041,-9.15018 -33.28873,0.0562 -7.27663,7.27498 -8.90825,17.99997 -4.53851,26.92495 l -63.032903,63.03745 c -8.927003,-4.36874 -19.65441,-2.7375 -26.931043,4.53749 -9.208316,9.18749 -9.245825,24.09371 -0.03751,33.29996 4.85734,4.85624 11.271279,7.12498 17.628957,6.86267 -0.26256,6.35605 2.025454,12.78748 6.882794,17.62497 9.208316,9.20623 24.080404,9.14998 33.28872,-0.0563 7.276821,-7.27518 8.889495,-17.99997 4.519952,-26.92514 L 159.92368,539.8287 c 8.92719,4.36875 19.65441,2.7375 26.93123,-4.53749 9.20832,-9.20642 9.24583,-24.11265 0.0373,-33.31869 -4.85753,-4.83731 -11.25271,-7.10624 -17.6104,-6.84374 z"
   style="fill:#000000;fill-opacity:1;stroke-width:0.187521" />

</svg>
