<?xml version="1.0" encoding="UTF-8" standalone="no"?>
<svg width="200" height="600" viewBox="0 0 200 600" xmlns="http://www.w3.org/2000/svg" xmlns:svg="http://www.w3.org/2000/svg">
<path d="m 157.04547,33.825012 c -1.85204,-1.328103 -4.23234,-1.670422 -6.37658,-0.907759 L 70.92881,61.139444 C 60.87409,60.657011 54.025718,57.870982 49.306156,54.763553 47.885198,53.829565 47.577237,53.27973 47.577237,53.27973 c -0.851656,-0.861275 -1.179973,-2.054576 -0.93866,-3.284067 0.246238,-1.229491 1.113325,-2.235862 2.282791,-2.650894 L 120.2841,22.089893 c 1.07229,-0.383822 2.26244,-0.212829 3.18567,0.451223 0.0821,0.06242 0.15398,0.145427 0.2308,0.207516 l 5.22222,-1.909148 c -0.32306,-1.810537 -1.29291,-3.45008 -2.80613,-4.529164 -1.85204,-1.333415 -4.23234,-1.670421 -6.37658,-0.913071 L 44.693953,41.959311 C 41.882572,42.955388 40,45.642805 40,48.651623 v 1.852039 116.976668 c 0,0 4.945445,16.26926 30.92848,17.51967 l 79.67869,-28.20161 C 156.2296,154.80624 160,149.43705 160,143.40846 V 39.609565 c 3.3e-4,-2.298283 -1.10249,-4.45645 -2.95453,-5.784553 z"      style="fill:#964b00;fill-opacity:1;stroke-width:0.187521" />
<path d="m 157.04547,233.82501 c -1.85204,-1.3281 -4.23234,-1.67042 -6.37658,-0.90776 l -79.74008,28.22219 c -10.05472,-0.48243 -16.903092,-3.26846 -21.622654,-6.37589 -1.420958,-0.93399 -1.728919,-1.48382 -1.728919,-1.48382 -0.851656,-0.86128 -1.179973,-2.05458 -0.93866,-3.28407 0.246238,-1.22949 1.113325,-2.23586 2.282791,-2.65089 L 120.2841,222.08989 c 1.07229,-0.38382 2.26244,-0.21283 3.18567,0.45123 0.0821,0.0624 0.15398,0.14542 0.2308,0.20751 l 5.22222,-1.90915 c -0.32306,-1.81053 -1.29291,-3.45008 -2.80613,-4.52916 -1.85204,-1.33342 -4.23234,-1.67042 -6.37658,-0.91307 L 44.693953,241.95931 C 41.882572,242.95539 40,245.6428 40,248.65162 v 1.85204 116.97667 c 0,0 4.945445,16.26926 30.92848,17.51967 l 79.67869,-28.20161 C 156.2296,354.80624 160,349.43705 160,343.40846 v -103.7989 c 3.3e-4,-2.29828 -1.10249,-4.45645 -2.95453,-5.78455 z" style="fill:#b39700;fill-opacity:1;stroke-width:0.187521" />
<path d="m 157.04547,433.82501 c -1.85204,-1.3281 -4.23234,-1.67042 -6.37658,-0.90776 l -79.74008,28.22219 c -10.05472,-0.48243 -16.903092,-3.26846 -21.622654,-6.37589 -1.420958,-0.93399 -1.728919,-1.48382 -1.728919,-1.48382 -0.851656,-0.86128 -1.179973,-2.05458 -0.93866,-3.28407 0.246238,-1.22949 1.113325,-2.23586 2.282791,-2.65089 L 120.2841,422.08989 c 1.07229,-0.38382 2.26244,-0.21283 3.18567,0.45123 0.0821,0.0624 0.15398,0.14542 0.2308,0.20751 l 5.22222,-1.90915 c -0.32306,-1.81053 -1.29291,-3.45008 -2.80613,-4.52916 -1.85204,-1.33342 -4.23234,-1.67042 -6.37658,-0.91307 L 44.693953,441.95931 C 41.882572,442.95539 40,445.6428 40,448.65162 v 1.85204 116.97667 c 0,0 4.945445,16.26926 30.92848,17.51967 l 79.67869,-28.20161 C 156.2296,554.80624 160,549.43705 160,543.40846 v -103.7989 c 3.3e-4,-2.29828 -1.10249,-4.45645 -2.95453,-5.78455 z" style="fill:#000000;fill-opacity:1;stroke-width:0.187521" />
</svg>
