<?xml version="1.0" encoding="UTF-8"?>
<svg
   width="200"
   height="600"
   viewBox="0 0 6 18"
   xmlns="http://www.w3.org/2000/svg">
  <path
     d="M 0.33,0.8328571 H 2.5928571 V 1.0842857 H 0.5814286 V 4.8557143 H 2.5928571 V 5.1071429 H 0.33"
     style="fill:#964b00;fill-opacity:1;stroke-width:0.251429"
     id="path1" />
  <path
     d="M 2.8442857,5.61 H 3.0957143 V 0.33 H 2.8442857"
     style="fill:#964b00;fill-opacity:1;stroke-width:0.251429"
     id="path2" />
  <path
     d="M 1.9097257,2.4125829 1.7674171,2.2702743 1.0676914,2.97 1.7674171,3.6697257 1.9097257,3.5274171 1.4780229,3.0957143 H 2.5928571 V 2.8442857 H 1.4780229"
     style="fill:#964b00;fill-opacity:1;stroke-width:0.251429"
     id="path3" />
  <path
     d="m 3.3471429,2.8442857 h 1.0258285 l -0.3872,-0.3872 L 4.2170857,2.2257714 4.9613143,2.97 4.2170857,3.7142286 3.9857714,3.4829143 l 0.3872,-0.3872 H 3.3471429 V 5.1071429 H 5.61 V 0.8328571 H 3.3471429 Z"
     style="fill:#964b00;fill-opacity:1;stroke-width:0.251429"
     id="path4" />
  <path
     d="M 0.33,6.8328571 H 2.5928571 V 7.0842857 H 0.5814286 v 3.7714283 h 2.0114285 v 0.251429 H 0.33"
     style="fill:#b39700;fill-opacity:1;stroke-width:0.251429"
     id="path1-3" />
  <path
     d="M 2.8442857,11.61 H 3.0957143 V 6.33 H 2.8442857"
     style="fill:#b39700;fill-opacity:1;stroke-width:0.251429"
     id="path2-6" />
  <path
     d="M 1.9097257,8.4125829 1.7674171,8.2702743 1.0676914,8.97 1.7674171,9.6697257 1.9097257,9.5274171 1.4780229,9.0957143 H 2.5928571 V 8.8442857 H 1.4780229"
     style="fill:#b39700;fill-opacity:1;stroke-width:0.251429"
     id="path3-7" />
  <path
     d="m 3.3471429,8.8442857 h 1.0258285 l -0.3872,-0.3872 L 4.2170857,8.2257714 4.9613143,8.97 4.2170857,9.7142286 3.9857714,9.4829143 l 0.3872,-0.3872 H 3.3471429 V 11.107143 H 5.61 V 6.8328571 H 3.3471429 Z"
     style="fill:#b39700;fill-opacity:1;stroke-width:0.251429"
     id="path4-5" />
  <path
     d="m 0.33,12.832857 h 2.2628571 v 0.251429 H 0.5814286 v 3.771428 h 2.0114285 v 0.251429 H 0.33"
     style="fill:#000000;fill-opacity:1;stroke-width:0.251429"
     id="path1-35" />
  <path
     d="M 2.8442857,17.61 H 3.0957143 V 12.33 H 2.8442857"
     style="fill:#000000;fill-opacity:1;stroke-width:0.251429"
     id="path2-62" />
  <path
     d="M 1.9097257,14.412583 1.7674171,14.270274 1.0676914,14.97 1.7674171,15.669726 1.9097257,15.527417 1.4780229,15.095714 H 2.5928571 V 14.844286 H 1.4780229"
     style="fill:#000000;fill-opacity:1;stroke-width:0.251429"
     id="path3-9" />
  <path
     d="m 3.3471429,14.844286 h 1.0258285 l -0.3872,-0.3872 0.2313143,-0.231315 0.7442286,0.744229 -0.7442286,0.744229 -0.2313143,-0.231315 0.3872,-0.3872 H 3.3471429 v 2.011429 H 5.61 V 12.832857 H 3.3471429 Z"
     style="fill:#000000;fill-opacity:1;stroke-width:0.251429"
     id="path4-1" />
  <path
     fill="none"
     d="M 0,0 H 24 V 24 H 0 Z"
     id="path5" />
</svg>
