<?xml version="1.0" encoding="UTF-8" standalone="no"?>
<!-- Uploaded to: SVG Repo, www.svgrepo.com, Generator: SVG Repo Mixer Tools -->

<svg
   width="200"
   height="600"
   viewBox="0 0 6 18"
   fill="none"
   version="1.1"
   id="svg8"
   xmlns="http://www.w3.org/2000/svg"
   xmlns:svg="http://www.w3.org/2000/svg">
  <defs
     id="defs8" />
  <path
     d="m 0.4929155,1.2450408 v 1.5042508 c 0,0 0,0.7521254 1.8473157,0.7521254 0.156362,0 0.2995026,-0.0054 0.4305038,-0.015243"
     stroke="#964b00"
     stroke-width="0.385831"
     stroke-linecap="round"
     stroke-linejoin="round"
     id="path1" />
  <path
     d="M 4.1875468,1.2450408 V 2.7492916"
     stroke="#964b00"
     stroke-width="0.385831"
     stroke-linecap="round"
     stroke-linejoin="round"
     id="path2" />
  <path
     d="m 2.3402312,0.4929155 c 1.8473156,0 1.8473156,0.7521253 1.8473156,0.7521253 0,0 0,0.7521254 -1.8473156,0.7521254 -1.8473157,0 -1.8473157,-0.7521254 -1.8473157,-0.7521254 0,0 0,-0.7521253 1.8473157,-0.7521253 z"
     stroke="#964b00"
     stroke-width="0.385831"
     stroke-linecap="round"
     stroke-linejoin="round"
     id="path3" />
  <path
     d="m 2.3402312,5.0056676 c -1.8473157,0 -1.8473157,-0.7521253 -1.8473157,-0.7521253 V 2.7492916"
     stroke="#964b00"
     stroke-width="0.385831"
     stroke-linecap="round"
     stroke-linejoin="round"
     id="path4" />
  <path
     d="M 5.4190202,4.1699811 C 5.2557175,3.7764441 4.8827973,3.501417 4.4488364,3.501417 c -0.4640193,0 -0.8583156,0.3145137 -1.0010602,0.7521253"
     stroke="#964b00"
     stroke-width="0.385831"
     stroke-linecap="round"
     stroke-linejoin="round"
     id="path5" />
  <path
     d="m 4.9779604,4.1699811 h 0.4410598 v 0 c 0.048638,0 0.088064,-0.037456 0.088064,-0.083661 V 3.6128573"
     stroke="#964b00"
     stroke-width="0.385831"
     stroke-linecap="round"
     stroke-linejoin="round"
     id="path6" />
  <path
     d="m 3.4838778,4.8385204 c 0.1633028,0.393537 0.5362231,0.6685642 0.970184,0.6685642 0.4640193,0 0.8583155,-0.3145138 1.0010602,-0.7521254"
     stroke="#964b00"
     stroke-width="0.385831"
     stroke-linecap="round"
     stroke-linejoin="round"
     id="path7" />
  <path
     d="m 3.9249378,4.8385204 h -0.44106 v 0 c -0.048638,0 -0.088064,0.037456 -0.088064,0.083661 v 0.4734629"
     stroke="#964b00"
     stroke-width="0.385831"
     stroke-linecap="round"
     stroke-linejoin="round"
     id="path8" />
  <path
     d="m 0.4929155,7.2450408 v 1.5042508 c 0,0 0,0.7521254 1.8473157,0.7521254 0.156362,0 0.2995026,-0.0054 0.4305038,-0.015243"
     stroke="#b39700"
     stroke-width="0.385831"
     stroke-linecap="round"
     stroke-linejoin="round"
     id="path1-6" />
  <path
     d="M 4.1875468,7.2450408 V 8.7492916"
     stroke="#b39700"
     stroke-width="0.385831"
     stroke-linecap="round"
     stroke-linejoin="round"
     id="path2-7" />
  <path
     d="m 2.3402312,6.4929155 c 1.8473156,0 1.8473156,0.7521253 1.8473156,0.7521253 0,0 0,0.7521254 -1.8473156,0.7521254 -1.8473157,0 -1.8473157,-0.7521254 -1.8473157,-0.7521254 0,0 0,-0.7521253 1.8473157,-0.7521253 z"
     stroke="#b39700"
     stroke-width="0.385831"
     stroke-linecap="round"
     stroke-linejoin="round"
     id="path3-5" />
  <path
     d="m 2.3402312,11.005668 c -1.8473157,0 -1.8473157,-0.752126 -1.8473157,-0.752126 V 8.7492916"
     stroke="#b39700"
     stroke-width="0.385831"
     stroke-linecap="round"
     stroke-linejoin="round"
     id="path4-3" />
  <path
     d="M 5.4190202,10.169981 C 5.2557175,9.7764441 4.8827973,9.501417 4.4488364,9.501417 c -0.4640193,0 -0.8583156,0.3145137 -1.0010602,0.752125"
     stroke="#b39700"
     stroke-width="0.385831"
     stroke-linecap="round"
     stroke-linejoin="round"
     id="path5-5" />
  <path
     d="m 4.9779604,10.169981 h 0.4410598 v 0 c 0.048638,0 0.088064,-0.03746 0.088064,-0.08366 V 9.6128573"
     stroke="#b39700"
     stroke-width="0.385831"
     stroke-linecap="round"
     stroke-linejoin="round"
     id="path6-6" />
  <path
     d="m 3.4838778,10.83852 c 0.1633028,0.393537 0.5362231,0.668565 0.970184,0.668565 0.4640193,0 0.8583155,-0.314514 1.0010602,-0.752126"
     stroke="#b39700"
     stroke-width="0.385831"
     stroke-linecap="round"
     stroke-linejoin="round"
     id="path7-2" />
  <path
     d="m 3.9249378,10.83852 h -0.44106 v 0 c -0.048638,0 -0.088064,0.03746 -0.088064,0.08366 v 0.473463"
     stroke="#b39700"
     stroke-width="0.385831"
     stroke-linecap="round"
     stroke-linejoin="round"
     id="path8-9" />
  <path
     d="m 0.4929155,13.245041 v 1.504251 c 0,0 0,0.752125 1.8473157,0.752125 0.156362,0 0.2995026,-0.0054 0.4305038,-0.01524"
     stroke="#000000"
     stroke-width="0.385831"
     stroke-linecap="round"
     stroke-linejoin="round"
     id="path1-2" />
  <path
     d="m 4.1875468,13.245041 v 1.504251"
     stroke="#000000"
     stroke-width="0.385831"
     stroke-linecap="round"
     stroke-linejoin="round"
     id="path2-70" />
  <path
     d="m 2.3402312,12.492915 c 1.8473156,0 1.8473156,0.752126 1.8473156,0.752126 0,0 0,0.752125 -1.8473156,0.752125 -1.8473157,0 -1.8473157,-0.752125 -1.8473157,-0.752125 0,0 0,-0.752126 1.8473157,-0.752126 z"
     stroke="#000000"
     stroke-width="0.385831"
     stroke-linecap="round"
     stroke-linejoin="round"
     id="path3-9" />
  <path
     d="m 2.3402312,17.005668 c -1.8473157,0 -1.8473157,-0.752126 -1.8473157,-0.752126 v -1.50425"
     stroke="#000000"
     stroke-width="0.385831"
     stroke-linecap="round"
     stroke-linejoin="round"
     id="path4-36" />
  <path
     d="M 5.4190202,16.169981 C 5.2557175,15.776444 4.8827973,15.501417 4.4488364,15.501417 c -0.4640193,0 -0.8583156,0.314514 -1.0010602,0.752125"
     stroke="#000000"
     stroke-width="0.385831"
     stroke-linecap="round"
     stroke-linejoin="round"
     id="path5-0" />
  <path
     d="m 4.9779604,16.169981 h 0.4410598 v 0 c 0.048638,0 0.088064,-0.03746 0.088064,-0.08366 v -0.473463"
     stroke="#000000"
     stroke-width="0.385831"
     stroke-linecap="round"
     stroke-linejoin="round"
     id="path6-62" />
  <path
     d="m 3.4838778,16.83852 c 0.1633028,0.393537 0.5362231,0.668565 0.970184,0.668565 0.4640193,0 0.8583155,-0.314514 1.0010602,-0.752126"
     stroke="#000000"
     stroke-width="0.385831"
     stroke-linecap="round"
     stroke-linejoin="round"
     id="path7-6" />
  <path
     d="m 3.9249378,16.83852 h -0.44106 v 0 c -0.048638,0 -0.088064,0.03746 -0.088064,0.08366 v 0.473463"
     stroke="#000000"
     stroke-width="0.385831"
     stroke-linecap="round"
     stroke-linejoin="round"
     id="path8-1" />
</svg>
