<?xml version="1.0" encoding="UTF-8" standalone="no"?>
<!-- Uploaded to: SVG Repo, www.svgrepo.com, Generator: SVG Repo Mixer Tools -->

<svg
   width="200"
   height="600"
   viewBox="0 0 6 18"
   fill="none"
   version="1.1"
   id="svg4"
   xmlns="http://www.w3.org/2000/svg"
   xmlns:svg="http://www.w3.org/2000/svg">
  <defs
     id="defs4" />
  <path
     d="m 0.50256663,1.291231 v 1.577325 c 0,0 0,0.7886627 1.94244747,0.7886627 1.9424475,0 1.9424475,-0.7886627 1.9424475,-0.7886627 V 1.291231"
     stroke="#964b00"
     stroke-width="0.200000"
     stroke-linecap="round"
     stroke-linejoin="round"
     id="path1" />
  <path
     d="m 2.4450141,0.5025684 c 1.9424475,0 1.9424475,0.7886626 1.9424475,0.7886626 0,0 0,0.7886625 -1.9424475,0.7886625 -1.94244747,0 -1.94244747,-0.7886625 -1.94244747,-0.7886625 0,0 0,-0.7886626 1.94244747,-0.7886626 z"
     stroke="#964b00"
     stroke-width="0.200000"
     stroke-linecap="round"
     stroke-linejoin="round"
     id="path2" />
  <path
     d="m 2.4450141,5.2345436 c -1.94244747,0 -1.94244747,-0.7886624 -1.94244747,-0.7886624 V 2.868556"
     stroke="#964b00"
     stroke-width="0.200000"
     stroke-linecap="round"
     stroke-linejoin="round"
     id="path3" />
  <path
     d="M 4.6649541,5.4974313 V 3.9201061 m 0,0 0.8324774,0.7886625 M 4.6649541,3.9201061 3.8324766,4.7087686"
     stroke="#964b00"
     stroke-width="0.200000"
     stroke-linecap="round"
     stroke-linejoin="round"
     id="path4" />
  <path
     d="m 0.50256663,7.2912311 v 1.577325 c 0,0 0,0.7886627 1.94244747,0.7886627 1.9424475,0 1.9424475,-0.7886627 1.9424475,-0.7886627 v -1.577325"
     stroke="#b39700"
     stroke-width="0.200000"
     stroke-linecap="round"
     stroke-linejoin="round"
     id="path1-6" />
  <path
     d="m 2.4450141,6.5025685 c 1.9424475,0 1.9424475,0.7886626 1.9424475,0.7886626 0,0 0,0.7886625 -1.9424475,0.7886625 -1.94244747,0 -1.94244747,-0.7886625 -1.94244747,-0.7886625 0,0 0,-0.7886626 1.94244747,-0.7886626 z"
     stroke="#b39700"
     stroke-width="0.200000"
     stroke-linecap="round"
     stroke-linejoin="round"
     id="path2-7" />
  <path
     d="m 2.4450141,11.234544 c -1.94244747,0 -1.94244747,-0.788663 -1.94244747,-0.788663 V 8.8685561"
     stroke="#b39700"
     stroke-width="0.200000"
     stroke-linecap="round"
     stroke-linejoin="round"
     id="path3-5" />
  <path
     d="M 4.6649541,11.497431 V 9.9201062 m 0,0 0.8324774,0.7886628 M 4.6649541,9.9201062 3.8324766,10.708769"
     stroke="#b39700"
     stroke-width="0.200000"
     stroke-linecap="round"
     stroke-linejoin="round"
     id="path4-3" />
  <path
     d="m 0.50256663,13.291231 v 1.577325 c 0,0 0,0.788663 1.94244747,0.788663 1.9424475,0 1.9424475,-0.788663 1.9424475,-0.788663 v -1.577325"
     stroke="#000000"
     stroke-width="0.200000"
     stroke-linecap="round"
     stroke-linejoin="round"
     id="path1-62" />
  <path
     d="m 2.4450141,12.502569 c 1.9424475,0 1.9424475,0.788662 1.9424475,0.788662 0,0 0,0.788663 -1.9424475,0.788663 -1.94244747,0 -1.94244747,-0.788663 -1.94244747,-0.788663 0,0 0,-0.788662 1.94244747,-0.788662 z"
     stroke="#000000"
     stroke-width="0.200000"
     stroke-linecap="round"
     stroke-linejoin="round"
     id="path2-9" />
  <path
     d="m 2.4450141,17.234544 c -1.94244747,0 -1.94244747,-0.788663 -1.94244747,-0.788663 v -1.577325"
     stroke="#000000"
     stroke-width="0.200000"
     stroke-linecap="round"
     stroke-linejoin="round"
     id="path3-1" />
  <path
     d="m 4.6649541,17.497431 v -1.577325 m 0,0 0.8324774,0.788663 M 4.6649541,15.920106 3.8324766,16.708769"
     stroke="#000000"
     stroke-width="0.200000"
     stroke-linecap="round"
     stroke-linejoin="round"
     id="path4-2" />
</svg>
