<?xml version="1.0" encoding="UTF-8" standalone="no"?>
<svg
   width="200"
   height="600"
   viewBox="0 0 12 36"
   xmlns="http://www.w3.org/2000/svg"
   xmlns:svg="http://www.w3.org/2000/svg">
  <path
   class="a"
   d="M 3.022443,1.9542958 C 2.4938553,3.5072736 2.9580349,4.3717175 3.5894384,5.3230111 2.91334,6.1187593 3.2226412,6.5680796 3.2700093,7.109475 2.9533404,7.5348478 2.6388897,8.0350452 1.9215124,7.9164774 1.6339466,7.8689793 1.4431368,7.9822241 1.4058964,8.2110222 1.2664953,9.0672604 0.82371017,9.0377519 0.53500682,9.3501499 0.16801055,9.7472195 1.1053581,10.355637 1.5208317,9.8592571 A 3.613859,4.2546626 0 0 0 2.2021929,8.8075488 C 3.1956714,8.8455991 4.2940992,9.2507735 4.9178499,8.1128513 5.1017184,7.7774099 5.3202663,7.9690285 5.5281454,7.9980682 6.1593213,8.0861865 6.7364721,8.6205857 7.5306065,7.8707911 7.8808457,7.5401393 7.9381143,7.7609316 7.9962646,7.9426022 8.2124803,8.6177051 8.5389077,8.3288873 8.8945241,8.1766243 l 1.2766619,-0.633035 c 0.191777,-0.095123 0.342303,-0.1076824 0.448902,0.063334 0.382132,0.6129383 0.631773,0.4315026 0.902811,-0.3766719 C 11.671063,6.788433 11.103471,6.3970568 10.542963,6.6216338 10.056849,6.8164002 9.2260718,7.1701966 9.0025457,6.6259788 8.7137003,5.9228077 9.2612071,5.0357889 9.642457,5.2310583 10.478126,5.6591441 11.43957,4.5548164 11.152886,4.1605597 L 10.445266,3.9981149 C 10.194003,3.9404385 10.068969,3.8363059 10.066891,3.6799227 10.059753,3.1325988 9.811843,3.015303 9.5090001,2.915726 A 1.61979,1.9070083 0 0 0 8.5956072,2.7922337 0.73538623,0.8657837 0 0 1 8.0341878,2.787704 C 7.9145302,2.7451978 7.7964655,2.6890976 7.7340195,2.7446986 7.4464252,3.0008261 6.752518,2.7892478 6.9747635,2.9490108 l 0.8539632,0.6136087 v 0 A 2.5262988,2.9742579 0 0 1 3.0023862,2.3303454 2.5526144,3.0052398 0 0 1 3.0224457,1.9543097 Z"
   id="path1"
   style="fill:#964b00;fill-opacity:1;fill-rule:nonzerostroke:#964b00;stroke-width:0.308688;stroke-linecap:round;stroke-linejoin:round" />
  <path
   class="a"
   d="m 3.022443,13.9543 c -0.5285877,1.552977 -0.064408,2.417421 0.5669954,3.368715 -0.6760984,0.795748 -0.3667972,1.245068 -0.3194291,1.786464 -0.3166689,0.425373 -0.6311196,0.92557 -1.3484969,0.807002 -0.2875658,-0.0475 -0.4783756,0.06575 -0.515616,0.294545 -0.1394011,0.856238 -0.58218623,0.82673 -0.87088958,1.139128 -0.36699627,0.397069 0.57035128,1.005487 0.98582488,0.509107 a 3.613859,4.2546626 0 0 0 0.6813612,-1.051708 c 0.9934785,0.03805 2.0919063,0.443224 2.715657,-0.694698 0.1838685,-0.335441 0.4024164,-0.143823 0.6102955,-0.114783 0.6311759,0.08812 1.2083267,0.622517 2.0024611,-0.127277 0.3502392,-0.330652 0.4075078,-0.10986 0.4656581,0.07181 0.2162157,0.675103 0.5426431,0.386285 0.8982595,0.234022 l 1.2766619,-0.633035 c 0.191777,-0.09512 0.342303,-0.107682 0.448902,0.06333 0.382132,0.612938 0.631773,0.431503 0.902811,-0.376672 0.148164,-0.441818 -0.419428,-0.833194 -0.979936,-0.608617 -0.486114,0.194766 -1.3168912,0.548562 -1.5404173,0.0043 -0.2888454,-0.703172 0.2586614,-1.59019 0.6399113,-1.394921 0.835669,0.428086 1.797113,-0.676242 1.510429,-1.070499 l -0.70762,-0.162444 C 10.194003,15.940442 10.068969,15.83631 10.066891,15.679926 10.059753,15.132603 9.811843,15.015307 9.5090001,14.91573 a 1.61979,1.9070083 0 0 0 -0.9133929,-0.123493 0.73538623,0.8657837 0 0 1 -0.5614194,-0.0045 c -0.1196576,-0.04251 -0.2377223,-0.09861 -0.3001683,-0.04301 -0.2875943,0.256128 -0.9815015,0.04455 -0.759256,0.204313 l 0.8539632,0.613608 v 0 a 2.5262988,2.9742579 0 0 1 -4.8263405,-1.232274 2.5526144,3.0052398 0 0 1 0.020059,-0.376036 z"
   id="path1-5"
   style="fill:#b39700;fill-opacity:1;fill-rule:nonzerostroke:#b39700;stroke-width:0.308688;stroke-linecap:round;stroke-linejoin:round" />
   <path
   class="a"
   d="m 3.022443,25.9543 c -0.5285877,1.552977 -0.064408,2.417421 0.5669954,3.368715 -0.6760984,0.795748 -0.3667972,1.245068 -0.3194291,1.786464 -0.3166689,0.425373 -0.6311196,0.92557 -1.3484969,0.807002 -0.2875658,-0.0475 -0.4783756,0.06575 -0.515616,0.294545 -0.1394011,0.856238 -0.58218623,0.82673 -0.87088958,1.139128 -0.36699627,0.397069 0.57035128,1.005487 0.98582488,0.509107 a 3.613859,4.2546626 0 0 0 0.6813612,-1.051708 c 0.9934785,0.03805 2.0919063,0.443224 2.715657,-0.694698 0.1838685,-0.335441 0.4024164,-0.143823 0.6102955,-0.114783 0.6311759,0.08812 1.2083267,0.622517 2.0024611,-0.127277 0.3502392,-0.330652 0.4075078,-0.10986 0.4656581,0.07181 0.2162157,0.675103 0.5426431,0.386285 0.8982595,0.234022 l 1.2766619,-0.633035 c 0.191777,-0.09512 0.342303,-0.107682 0.448902,0.06333 0.382132,0.612938 0.631773,0.431503 0.902811,-0.376672 0.148164,-0.441818 -0.419428,-0.833194 -0.979936,-0.608617 -0.486114,0.194766 -1.3168912,0.548562 -1.5404173,0.0043 -0.2888454,-0.703172 0.2586614,-1.59019 0.6399113,-1.394921 0.835669,0.428086 1.797113,-0.676242 1.510429,-1.070499 l -0.70762,-0.162444 C 10.194003,27.940442 10.068969,27.83631 10.066891,27.679926 10.059753,27.132603 9.811843,27.015307 9.5090001,26.91573 a 1.61979,1.9070083 0 0 0 -0.9133929,-0.123493 0.73538623,0.8657837 0 0 1 -0.5614194,-0.0045 c -0.1196576,-0.04251 -0.2377223,-0.09861 -0.3001683,-0.04301 -0.2875943,0.256128 -0.9815015,0.04455 -0.759256,0.204313 l 0.8539632,0.613608 v 0 a 2.5262988,2.9742579 0 0 1 -4.8263405,-1.232274 2.5526144,3.0052398 0 0 1 0.020059,-0.376036 z"
   id="path1-2"
   style="fill:#000000;fill-opacity:1;fill-rule:nonzerostroke:#000000;stroke-width:0.308688;stroke-linecap:round;stroke-linejoin:round" />
</svg>
