<?xml version="1.0" encoding="UTF-8" standalone="no"?>
<svg
   width="200"
   height="600"
   viewBox="0 0 6 18"
   fill="none"
   xmlns="http://www.w3.org/2000/svg"
   xmlns:svg="http://www.w3.org/2000/svg">
  <path
     d="M 4.9928725,3.4226023 V 2.0248646 c 0,-0.4120042 0,-0.6180061 -0.081649,-0.7753692 C 4.839413,1.1110727 4.7248302,0.9985326 4.5838802,0.9280034 4.423629,0.8478222 4.2138892,0.8478222 3.7943601,0.8478222 H 2.1963437 c -0.4195192,0 -0.6292788,0 -0.7895124,0.08018 -0.1409475,0.07053 -0.2555403,0.1830698 -0.3273561,0.3214925 -0.081644,0.1573631 -0.081644,0.3633651 -0.081644,0.7753692 v 2.5502584 c 0,0.4120138 0,0.6179962 0.081644,0.7753766 0.071815,0.1384251 0.1864086,0.2509553 0.3273561,0.3214798 0.1602336,0.080186 0.3699832,0.080186 0.7894774,0.080186 H 3.120197 M 3.744422,5.0165131 4.4934923,5.7521646 m 0,0 0.7490702,-0.7356515 M 4.4934923,5.7521654 v -1.471303"
     stroke="#964b00"
     stroke-width="0.494887"
     stroke-linecap="round"
     stroke-linejoin="round"
     id="path1" />
  <line
     x1="1.85"
     y1="1.67"
     x2="4.26"
     y2="1.67"
     stroke="#964b00"
     stroke-width="0.300"
     stroke-linecap="round"
     id="line16" />
  <line
     x1="1.85"
     y1="2.316"
     x2="4.26"
     y2="2.316"
     stroke="#964b00"
     stroke-width="0.3"
     stroke-linecap="round"
     id="line17" />
  <line
     x1="1.85"
     y1="2.962"
     x2="4.26"
     y2="2.962"
     stroke="#964b00"
     stroke-width="0.3"
     stroke-linecap="round"
     id="line18" />
  <line
     x1="1.85"
     y1="3.608"
     x2="4.26"
     y2="3.608"
     stroke="#964b00"
     stroke-width="0.3"
     stroke-linecap="round"
     id="line19" />
  <line
     x1="1.85"
     y1="4.254"
     x2="3.75"
     y2="4.254"
     stroke="#964b00"
     stroke-width="0.3"
     stroke-linecap="round"
     id="line20" />
  <line
     x1="1.85"
     y1="4.9"
     x2="3.0"
     y2="4.9"
     stroke="#964b00"
     stroke-width="0.3"
     stroke-linecap="round"
     id="line21" />
  <path
     d="M 4.9928725,9.4226023 V 8.0248646 c 0,-0.4120042 0,-0.6180061 -0.081649,-0.7753692 C 4.839413,7.1110727 4.7248302,6.9985326 4.5838802,6.9280034 4.423629,6.8478222 4.2138892,6.8478222 3.7943601,6.8478222 H 2.1963437 c -0.4195192,0 -0.6292788,0 -0.7895124,0.08018 C 1.2658838,6.9985322 1.151291,7.111072 1.0794752,7.2494947 0.9978312,7.4068578 0.9978312,7.6128598 0.9978312,8.0248639 v 2.5502581 c 0,0.412014 0,0.617996 0.081644,0.775377 0.071815,0.138425 0.1864086,0.250955 0.3273561,0.32148 0.1602336,0.08019 0.3699832,0.08019 0.7894774,0.08019 H 3.120197 m 0.624225,-0.735652 0.7490703,0.735652 m 0,0 0.7490702,-0.735652 m -0.7490702,0.735652 v -1.471303"
     stroke="#b39700"
     stroke-width="0.494887"
     stroke-linecap="round"
     stroke-linejoin="round"
     id="path1-5" />
  <line
     x1="1.85"
     y1="7.6700001"
     x2="4.2600002"
     y2="7.6700001"
     stroke="#b39700"
     stroke-width="0.3"
     stroke-linecap="round"
     id="line16-3" />
  <line
     x1="1.85"
     y1="8.316"
     x2="4.2600002"
     y2="8.316"
     stroke="#b39700"
     stroke-width="0.3"
     stroke-linecap="round"
     id="line17-5" />
  <line
     x1="1.85"
     y1="8.9619999"
     x2="4.2600002"
     y2="8.9619999"
     stroke="#b39700"
     stroke-width="0.3"
     stroke-linecap="round"
     id="line18-6" />
  <line
     x1="1.85"
     y1="9.6079998"
     x2="4.2600002"
     y2="9.6079998"
     stroke="#b39700"
     stroke-width="0.3"
     stroke-linecap="round"
     id="line19-2" />
  <line
     x1="1.85"
     y1="10.254"
     x2="3.75"
     y2="10.254"
     stroke="#b39700"
     stroke-width="0.3"
     stroke-linecap="round"
     id="line20-9" />
  <line
     x1="1.85"
     y1="10.9"
     x2="3"
     y2="10.9"
     stroke="#b39700"
     stroke-width="0.3"
     stroke-linecap="round"
     id="line21-1" />
  <path
     d="m 4.9928725,15.422602 v -1.397737 c 0,-0.412005 0,-0.618007 -0.081649,-0.77537 C 4.839413,13.111073 4.7248302,12.998533 4.5838802,12.928003 4.423629,12.847822 4.2138892,12.847822 3.7943601,12.847822 H 2.1963437 c -0.4195192,0 -0.6292788,0 -0.7895124,0.08018 -0.1409475,0.07053 -0.2555403,0.18307 -0.3273561,0.321493 -0.081644,0.157363 -0.081644,0.363365 -0.081644,0.775369 v 2.550258 c 0,0.412014 0,0.617996 0.081644,0.775377 0.071815,0.138425 0.1864086,0.250955 0.3273561,0.32148 0.1602336,0.08019 0.3699832,0.08019 0.7894774,0.08019 H 3.120197 m 0.624225,-0.735652 0.7490703,0.735652 m 0,0 0.7490702,-0.735652 m -0.7490702,0.735652 v -1.471303"
     stroke="#000000"
     stroke-width="0.494887"
     stroke-linecap="round"
     stroke-linejoin="round"
     id="path1-9" />
  <line
     x1="1.85"
     y1="13.67"
     x2="4.2600002"
     y2="13.67"
     stroke="#000000"
     stroke-width="0.3"
     stroke-linecap="round"
     id="line16-36" />
  <line
     x1="1.85"
     y1="14.316"
     x2="4.2600002"
     y2="14.316"
     stroke="#000000"
     stroke-width="0.3"
     stroke-linecap="round"
     id="line17-0" />
  <line
     x1="1.85"
     y1="14.962"
     x2="4.2600002"
     y2="14.962"
     stroke="#000000"
     stroke-width="0.3"
     stroke-linecap="round"
     id="line18-62" />
  <line
     x1="1.85"
     y1="15.608"
     x2="4.2600002"
     y2="15.608"
     stroke="#000000"
     stroke-width="0.3"
     stroke-linecap="round"
     id="line19-6" />
  <line
     x1="1.85"
     y1="16.254"
     x2="3.75"
     y2="16.254"
     stroke="#000000"
     stroke-width="0.3"
     stroke-linecap="round"
     id="line20-1" />
  <line
     x1="1.85"
     y1="16.9"
     x2="3"
     y2="16.9"
     stroke="#000000"
     stroke-width="0.3"
     stroke-linecap="round"
     id="line21-8" />
</svg>
