<?xml version="1.0" encoding="UTF-8"?>
<svg
   width="200"
   height="600"
   viewBox="0 0 8 24"
   xmlns="http://www.w3.org/2000/svg"
   xmlns:svg="http://www.w3.org/2000/svg">
  <path
     fill="#964b00"
     stroke="#964b00"
     d="M 6.5531116,2.558133 5.3651333,1.4288635 c -0.2292591,-0.2179293 -0.6460937,-0.2179293 -0.8753527,0 L 3.010018,2.8354975 c 0,0 0,0 0,0 0,0 0,0 0,0 L 1.4468882,4.3213789 c -0.2501008,0.2377406 -0.2501008,0.614164 0,0.8320932 l 0.7919857,0.7528463 c 0.041683,0.039624 0.083368,0.059435 0.1458922,0.059435 h 1.375554 c 0.062527,0 0.1042086,-0.019812 0.1458922,-0.059435 L 6.5531116,3.3902266 c 0,0 0,0 0,0 0.2501008,-0.2179292 0.2501008,-0.5943525 0,-0.8320936 z M 3.6769535,5.5695188 H 2.4889748 L 1.7595143,4.8761078 c -0.083367,-0.079248 -0.083367,-0.1981176 0,-0.2773645 l 1.4172376,-1.347199 1.4797625,1.4066341 z"
     id="path1"
     style="stroke-width:0.203202" />
  <path
     fill="#964b00"
     stroke="#964b00"
     d="M 6.1988024,6.342177 H 1.6136221 c -0.1250504,0 -0.2084172,0.079248 -0.2084172,0.1981174 0,0.1188706 0.083367,0.1981175 0.2084172,0.1981175 h 4.5851803 c 0.1250504,0 0.2084173,-0.079248 0.2084173,-0.1981175 0,-0.1188702 -0.083368,-0.1981174 -0.2084173,-0.1981174 z"
     id="path2"
     style="stroke-width:0.203202" />
  <path
     fill="#964b00"
     stroke="#964b00"
     d="M 6.5531116,2.558133 5.3651333,1.4288635 c -0.2292591,-0.2179293 -0.6460937,-0.2179293 -0.8753527,0 L 3.010018,2.8354975 c 0,0 0,0 0,0 0,0 0,0 0,0 L 1.4468882,4.3213789 c -0.2501008,0.2377406 -0.2501008,0.614164 0,0.8320932 l 0.7919857,0.7528463 c 0.041683,0.039624 0.083368,0.059435 0.1458922,0.059435 h 1.375554 c 0.062527,0 0.1042086,-0.019812 0.1458922,-0.059435 L 6.5531116,3.3902266 c 0,0 0,0 0,0 0.2501008,-0.2179292 0.2501008,-0.5943525 0,-0.8320936 z M 3.6769535,5.5695188 H 2.4889748 L 1.7595143,4.8761078 c -0.083367,-0.079248 -0.083367,-0.1981176 0,-0.2773645 l 1.4172376,-1.347199 1.4797625,1.4066341 z"
     id="path1-6"
     style="stroke-width:0.203202" />
  <path
     fill="#964b00"
     stroke="#964b00"
     d="M 6.1988024,6.342177 H 1.6136221 c -0.1250504,0 -0.2084172,0.079248 -0.2084172,0.1981174 0,0.1188706 0.083367,0.1981175 0.2084172,0.1981175 h 4.5851803 c 0.1250504,0 0.2084173,-0.079248 0.2084173,-0.1981175 0,-0.1188702 -0.083368,-0.1981174 -0.2084173,-0.1981174 z"
     id="path2-7"
     style="stroke-width:0.203202" />
  <path
     fill="#964b00"
     stroke="#964b00"
     d="M 6.5531116,2.558133 5.3651333,1.4288635 c -0.2292591,-0.2179293 -0.6460937,-0.2179293 -0.8753527,0 L 3.010018,2.8354975 c 0,0 0,0 0,0 0,0 0,0 0,0 L 1.4468882,4.3213789 c -0.2501008,0.2377406 -0.2501008,0.614164 0,0.8320932 l 0.7919857,0.7528463 c 0.041683,0.039624 0.083368,0.059435 0.1458922,0.059435 h 1.375554 c 0.062527,0 0.1042086,-0.019812 0.1458922,-0.059435 L 6.5531116,3.3902266 c 0,0 0,0 0,0 0.2501008,-0.2179292 0.2501008,-0.5943525 0,-0.8320936 z M 3.6769535,5.5695188 H 2.4889748 L 1.7595143,4.8761078 c -0.083367,-0.079248 -0.083367,-0.1981176 0,-0.2773645 l 1.4172376,-1.347199 1.4797625,1.4066341 z"
     id="path1-3"
     style="stroke-width:0.203202" />
  <path
     fill="#964b00"
     stroke="#964b00"
     d="M 6.1988024,6.342177 H 1.6136221 c -0.1250504,0 -0.2084172,0.079248 -0.2084172,0.1981174 0,0.1188706 0.083367,0.1981175 0.2084172,0.1981175 h 4.5851803 c 0.1250504,0 0.2084173,-0.079248 0.2084173,-0.1981175 0,-0.1188702 -0.083368,-0.1981174 -0.2084173,-0.1981174 z"
     id="path2-5"
     style="stroke-width:0.203202" />
  <path
     fill="#b39700"
     stroke="#b39700"
     d="M 6.5531119,10.558118 5.3651333,9.4288471 c -0.2292589,-0.2179295 -0.6460936,-0.2179295 -0.8753527,0 L 3.0100177,10.835483 c 0,0 0,0 0,0 0,0 0,0 0,0 l -1.5631298,1.485882 c -0.2501008,0.237741 -0.2501008,0.614166 0,0.832094 l 0.7919857,0.752849 c 0.041684,0.03962 0.083367,0.05944 0.1458921,0.05944 h 1.3755545 c 0.062526,0 0.1042085,-0.0198 0.145892,-0.05944 l 2.6468997,-2.516096 c 0,0 0,0 0,0 0.250101,-0.217929 0.250101,-0.594354 0,-0.832094 z M 3.6769533,13.569506 H 2.4889747 l -0.7294606,-0.69341 c -0.083367,-0.07925 -0.083367,-0.19812 0,-0.277366 l 1.4172376,-1.347201 1.4797628,1.406636 z"
     id="path1-5"
     style="stroke-width:0.203201" />
  <path
     fill="#b39700"
     stroke="#b39700"
     d="M 6.1988026,14.342166 H 1.6136219 c -0.1250505,0 -0.2084173,0.07925 -0.2084173,0.198117 0,0.11887 0.083367,0.198117 0.2084173,0.198117 h 4.5851807 c 0.1250504,0 0.2084173,-0.07925 0.2084173,-0.198117 0,-0.11887 -0.083367,-0.198117 -0.2084173,-0.198117 z"
     id="path2-3"
     style="stroke-width:0.203201" />
  <path
     fill="#b39700"
     stroke="#b39700"
     d="M 6.5531119,10.558118 5.3651333,9.4288471 c -0.2292589,-0.2179295 -0.6460936,-0.2179295 -0.8753527,0 L 3.0100177,10.835483 c 0,0 0,0 0,0 0,0 0,0 0,0 l -1.5631298,1.485882 c -0.2501008,0.237741 -0.2501008,0.614166 0,0.832094 l 0.7919857,0.752849 c 0.041684,0.03962 0.083367,0.05944 0.1458921,0.05944 h 1.3755545 c 0.062526,0 0.1042085,-0.0198 0.145892,-0.05944 l 2.6468997,-2.516096 c 0,0 0,0 0,0 0.250101,-0.217929 0.250101,-0.594354 0,-0.832094 z M 3.6769533,13.569506 H 2.4889747 l -0.7294606,-0.69341 c -0.083367,-0.07925 -0.083367,-0.19812 0,-0.277366 l 1.4172376,-1.347201 1.4797628,1.406636 z"
     id="path1-6-5"
     style="stroke-width:0.203201" />
  <path
     fill="#b39700"
     stroke="#b39700"
     d="M 6.1988026,14.342166 H 1.6136219 c -0.1250505,0 -0.2084173,0.07925 -0.2084173,0.198117 0,0.11887 0.083367,0.198117 0.2084173,0.198117 h 4.5851807 c 0.1250504,0 0.2084173,-0.07925 0.2084173,-0.198117 0,-0.11887 -0.083367,-0.198117 -0.2084173,-0.198117 z"
     id="path2-7-6"
     style="stroke-width:0.203201" />
  <path
     fill="#b39700"
     stroke="#b39700"
     d="M 6.5531119,10.558118 5.3651333,9.4288471 c -0.2292589,-0.2179295 -0.6460936,-0.2179295 -0.8753527,0 L 3.0100177,10.835483 c 0,0 0,0 0,0 0,0 0,0 0,0 l -1.5631298,1.485882 c -0.2501008,0.237741 -0.2501008,0.614166 0,0.832094 l 0.7919857,0.752849 c 0.041684,0.03962 0.083367,0.05944 0.1458921,0.05944 h 1.3755545 c 0.062526,0 0.1042085,-0.0198 0.145892,-0.05944 l 2.6468997,-2.516096 c 0,0 0,0 0,0 0.250101,-0.217929 0.250101,-0.594354 0,-0.832094 z M 3.6769533,13.569506 H 2.4889747 l -0.7294606,-0.69341 c -0.083367,-0.07925 -0.083367,-0.19812 0,-0.277366 l 1.4172376,-1.347201 1.4797628,1.406636 z"
     id="path1-3-2"
     style="stroke-width:0.203201" />
  <path
     fill="#b39700"
     stroke="#b39700"
     d="M 6.1988026,14.342166 H 1.6136219 c -0.1250505,0 -0.2084173,0.07925 -0.2084173,0.198117 0,0.11887 0.083367,0.198117 0.2084173,0.198117 h 4.5851807 c 0.1250504,0 0.2084173,-0.07925 0.2084173,-0.198117 0,-0.11887 -0.083367,-0.198117 -0.2084173,-0.198117 z"
     id="path2-5-9"
     style="stroke-width:0.203201" />
  <path
     fill="#000000"
     stroke="#000000"
     d="M 6.553141,18.55812 5.3651602,17.42885 c -0.2292593,-0.217929 -0.6460947,-0.217929 -0.8753543,0 l -1.4797654,1.406635 c 0,0 0,0 0,0 0,0 0,0 0,0 l -1.5631326,1.485881 c -0.2501013,0.237742 -0.2501013,0.614165 0,0.832095 l 0.7919871,0.752846 c 0.041684,0.03962 0.083367,0.05944 0.1458924,0.05944 h 1.3755568 c 0.062527,0 0.1042087,-0.0198 0.1458923,-0.05944 L 6.553141,19.390214 c 0,0 0,0 0,0 0.2501014,-0.21793 0.2501014,-0.594353 0,-0.832094 z M 3.6769771,21.569507 H 2.4889964 L 1.7595345,20.876096 c -0.083367,-0.07925 -0.083367,-0.198119 0,-0.277364 l 1.4172402,-1.347201 1.4797654,1.406636 z"
     id="path1-0"
     style="stroke-width:0.203201" />
  <path
     fill="#000000"
     stroke="#000000"
     d="m 6.1988311,22.342166 h -4.585189 c -0.1250507,0 -0.2084177,0.07925 -0.2084177,0.198117 0,0.118871 0.083367,0.198117 0.2084177,0.198117 h 4.585189 c 0.1250505,0 0.2084176,-0.07925 0.2084176,-0.198117 0,-0.11887 -0.083367,-0.198117 -0.2084176,-0.198117 z"
     id="path2-9"
     style="stroke-width:0.203201" />
  <path
     fill="#000000"
     stroke="#000000"
     d="M 6.553141,18.55812 5.3651602,17.42885 c -0.2292593,-0.217929 -0.6460947,-0.217929 -0.8753543,0 l -1.4797654,1.406635 c 0,0 0,0 0,0 0,0 0,0 0,0 l -1.5631326,1.485881 c -0.2501013,0.237742 -0.2501013,0.614165 0,0.832095 l 0.7919871,0.752846 c 0.041684,0.03962 0.083367,0.05944 0.1458924,0.05944 h 1.3755568 c 0.062527,0 0.1042087,-0.0198 0.1458923,-0.05944 L 6.553141,19.390214 c 0,0 0,0 0,0 0.2501014,-0.21793 0.2501014,-0.594353 0,-0.832094 z M 3.6769771,21.569507 H 2.4889964 L 1.7595345,20.876096 c -0.083367,-0.07925 -0.083367,-0.198119 0,-0.277364 l 1.4172402,-1.347201 1.4797654,1.406636 z"
     id="path1-6-3"
     style="stroke-width:0.203201" />
  <path
     fill="#000000"
     stroke="#000000"
     d="m 6.1988311,22.342166 h -4.585189 c -0.1250507,0 -0.2084177,0.07925 -0.2084177,0.198117 0,0.118871 0.083367,0.198117 0.2084177,0.198117 h 4.585189 c 0.1250505,0 0.2084176,-0.07925 0.2084176,-0.198117 0,-0.11887 -0.083367,-0.198117 -0.2084176,-0.198117 z"
     id="path2-7-60"
     style="stroke-width:0.203201" />
  <path
     fill="#000000"
     stroke="#000000"
     d="M 6.553141,18.55812 5.3651602,17.42885 c -0.2292593,-0.217929 -0.6460947,-0.217929 -0.8753543,0 l -1.4797654,1.406635 c 0,0 0,0 0,0 0,0 0,0 0,0 l -1.5631326,1.485881 c -0.2501013,0.237742 -0.2501013,0.614165 0,0.832095 l 0.7919871,0.752846 c 0.041684,0.03962 0.083367,0.05944 0.1458924,0.05944 h 1.3755568 c 0.062527,0 0.1042087,-0.0198 0.1458923,-0.05944 L 6.553141,19.390214 c 0,0 0,0 0,0 0.2501014,-0.21793 0.2501014,-0.594353 0,-0.832094 z M 3.6769771,21.569507 H 2.4889964 L 1.7595345,20.876096 c -0.083367,-0.07925 -0.083367,-0.198119 0,-0.277364 l 1.4172402,-1.347201 1.4797654,1.406636 z"
     id="path1-3-6"
     style="stroke-width:0.203201" />
  <path
     fill="#000000"
     stroke="#000000"
     d="m 6.1988311,22.342166 h -4.585189 c -0.1250507,0 -0.2084177,0.07925 -0.2084177,0.198117 0,0.118871 0.083367,0.198117 0.2084177,0.198117 h 4.585189 c 0.1250505,0 0.2084176,-0.07925 0.2084176,-0.198117 0,-0.11887 -0.083367,-0.198117 -0.2084176,-0.198117 z"
     id="path2-5-2"
     style="stroke-width:0.203201" />
</svg>
