<?xml version="1.0" encoding="utf-8"?>
<svg fill="#000000" width="200px" height="600px" viewBox="0 0 36 108" xmlns="http://www.w3.org/2000/svg" xmlns:xlink="http://www.w3.org/1999/xlink">
<path d="M 30,15.3 V 30 H 27 V 22 A 2,2 0 0 0 25,20 H 11 a 2,2 0 0 0 -2,2 v 8 H 6 V 6 h 4 v 6 a 2,2 0 0 0 2,2 H 24.9 L 23.7,12 H 12 V 6 h 8.6 L 19.4,4 H 6 A 2,2 0 0 0 4,6 v 24 a 2,2 0 0 0 2,2 h 24 a 2,2 0 0 0 2,-2 V 11.85 Z M 25,30 H 11 v -8 h 14 z" id="path1" style="fill:#964b00;fill-opacity:1"/><path d="M 26.85,13.300695 21.13,3.4406949 a 1.28,1.28 0 0 1 1.1,-2 h 11.45 a 1.28,1.28 0 0 1 1.1,2 l -5.72,9.8600001 a 1.28,1.28 0 0 1 -2.21,0 z" id="path2" style="fill:#964b00;fill-opacity:1"/>

<path d="M 30,51.3 V 66 H 27 V 58 A 2,2 0 0 0 25,56 H 11 a 2,2 0 0 0 -2,2 v 8 H 6 V 42 h 4 v 6 a 2,2 0 0 0 2,2 H 24.9 L 23.7,48 H 12 v -6 h 8.6 L 19.4,40 H 6 a 2,2 0 0 0 -2,2 v 24 a 2,2 0 0 0 2,2 h 24 a 2,2 0 0 0 2,-2 V 47.85 Z M 25,66 H 11 v -8 h 14 z" id="path3" style="fill:#b39700;fill-opacity:1"/><path d="m 26.85,49.300695 -5.72,-9.86 a 1.28,1.28 0 0 1 1.1,-2 h 11.45 a 1.28,1.28 0 0 1 1.1,2 l -5.72,9.86 a 1.28,1.28 0 0 1 -2.21,0 z" id="path4" style="fill:#b39700;fill-opacity:1"/>

<path d="M 30,87.3 V 102 H 27 V 94 A 2,2 0 0 0 25,92 H 11 a 2,2 0 0 0 -2,2 v 8 H 6 V 78 h 4 v 6 a 2,2 0 0 0 2,2 H 24.9 L 23.7,84 H 12 v -6 h 8.6 L 19.4,76 H 6 a 2,2 0 0 0 -2,2 v 24 a 2,2 0 0 0 2,2 h 24 a 2,2 0 0 0 2,-2 V 83.85 Z M 25,102 H 11 v -8 h 14 z" id="path5" style="fill:#000000;fill-opacity:1"/><path d="m 26.85,85.300695 -5.72,-9.86 a 1.28,1.28 0 0 1 1.1,-2 h 11.45 a 1.28,1.28 0 0 1 1.1,2 l -5.72,9.86 a 1.28,1.28 0 0 1 -2.21,0 z" id="path6" style="fill:#000000;fill-opacity:1" />
</svg>
