<?xml version="1.0" encoding="utf-8"?>
<svg fill="#000000" width="200px" height="600px" viewBox="0 0 36 108" xmlns="http://www.w3.org/2000/svg" xmlns:xlink="http://www.w3.org/1999/xlink"><path d="M 30,15.4 V 30 H 27 V 22 A 2,2 0 0 0 25,20 H 11 a 2,2 0 0 0 -2,2 v 8 H 6 V 6 h 4 v 6 a 2,2 0 0 0 2,2 h 7.35 A 3.54,3.54 0 0 1 18.58,12 H 12 V 6 h 9.29 L 22.44,4 H 6 A 2,2 0 0 0 4,6 v 24 a 2,2 0 0 0 2,2 h 24 a 2,2 0 0 0 2,-2 V 15.4 Z M 25,30 H 11 v -8 h 14 z"
     class="clr-i-outline--alerted clr-i-outline-path-1--alerted"
     id="path1" style="fill:#964b00;fill-opacity:1;" />
  <path
     d="M 26.85,1.14 21.13,11 a 1.28,1.28 0 0 0 1.1,2 h 11.45 a 1.28,1.28 0 0 0 1.1,-2 L 29.06,1.14 a 1.28,1.28 0 0 0 -2.21,0 z"
     class="clr-i-outline--alerted clr-i-outline-path-2--alerted clr-i-alert"
     id="path2" style="fill:#964b00;fill-opacity:1;" />

  <path
     d="M 30,51.4 V 66 H 27 V 58 A 2,2 0 0 0 25,56 H 11 a 2,2 0 0 0 -2,2 v 8 H 6 V 42 h 4 v 6 a 2,2 0 0 0 2,2 h 7.35 A 3.54,3.54 0 0 1 18.58,48 H 12 v -6 h 9.29 l 1.15,-2 H 6 a 2,2 0 0 0 -2,2 v 24 a 2,2 0 0 0 2,2 h 24 a 2,2 0 0 0 2,-2 V 51.4 Z M 25,66 H 11 v -8 h 14 z"
     class="clr-i-outline--alerted clr-i-outline-path-1--alerted"
     id="path3" style="fill:#b39700;fill-opacity:1;" />
  <path
     d="M 26.85,37.14 21.13,47 a 1.28,1.28 0 0 0 1.1,2 h 11.45 a 1.28,1.28 0 0 0 1.1,-2 l -5.72,-9.86 a 1.28,1.28 0 0 0 -2.21,0 z"
     class="clr-i-outline--alerted clr-i-outline-path-2--alerted clr-i-alert"
     id="path4" style="fill:#b39700;fill-opacity:1;" />

  <path
     d="M 30,87.4 V 102 H 27 V 94 A 2,2 0 0 0 25,92 H 11 a 2,2 0 0 0 -2,2 v 8 H 6 V 78 h 4 v 6 a 2,2 0 0 0 2,2 h 7.35 A 3.54,3.54 0 0 1 18.58,84 H 12 v -6 h 9.29 l 1.15,-2 H 6 a 2,2 0 0 0 -2,2 v 24 a 2,2 0 0 0 2,2 h 24 a 2,2 0 0 0 2,-2 V 87.4 Z M 25,102 H 11 v -8 h 14 z"
     class="clr-i-outline--alerted clr-i-outline-path-1--alerted"
     id="path5" style="fill:#000000;fill-opacity:1;" />
  <path
     d="M 26.85,73.14 21.13,83 a 1.28,1.28 0 0 0 1.1,2 h 11.45 a 1.28,1.28 0 0 0 1.1,-2 l -5.72,-9.86 a 1.28,1.28 0 0 0 -2.21,0 z"
     class="clr-i-outline--alerted clr-i-outline-path-2--alerted clr-i-alert"
     id="path6" style="fill:#000000;fill-opacity:1;" />
</svg>
