<?xml version="1.0" encoding="UTF-8" standalone="no"?>
<svg
   width="200"
   height="600"
   version="1.1"
   id="Layer_1"
   viewBox="0 0 128 384"
   xmlns="http://www.w3.org/2000/svg"
   xmlns:svg="http://www.w3.org/2000/svg">
  <defs
     id="defs8" />
  <g
     id="colored_group"
     fill="#964b00"
     transform="matrix(0.225,0,0,0.23799096,6.4,3.0743143)">
    <path
       d="m 293.65,430.108 c -3.582,-5.715 -8.425,-10.558 -14.14,-14.14 v -55.87 H 406.538 V 193.877 H 390.865 V 344.426 H 121.135 V 193.877 H 105.462 V 360.099 H 232.49 v 55.87 c -5.715,3.582 -10.558,8.425 -14.14,14.14 H 0 v 47.02 h 218.351 c 7.858,12.538 21.791,20.897 37.649,20.897 15.857,0 29.79,-8.359 37.648,-20.897 H 512 v -47.02 H 293.65 Z m -81.352,31.347 H 15.673 v -15.673 h 196.625 c -0.456,2.545 -0.706,5.161 -0.706,7.836 0,2.675 0.251,5.291 0.706,7.837 z M 248.163,360.1 h 15.673 v 49.816 c -2.545,-0.456 -5.162,-0.706 -7.837,-0.706 -2.675,0 -5.291,0.251 -7.837,0.706 V 360.1 Z M 256,482.352 c -15.845,0 -28.735,-12.891 -28.735,-28.735 0,-15.844 12.89,-28.735 28.735,-28.735 15.845,0 28.735,12.891 28.735,28.735 0,15.844 -12.89,28.735 -28.735,28.735 z M 496.327,461.455 H 299.702 c 0.456,-2.546 0.706,-5.163 0.706,-7.838 0,-2.675 -0.251,-5.29 -0.706,-7.836 h 196.625 z"
       id="path1" />
    <path
       d="M 256,13.974 55.907,147.37 87.786,195.188 256,83.045 424.214,195.188 456.093,147.37 Z M 419.867,173.453 256,64.208 92.133,173.453 77.642,151.717 256,32.811 434.357,151.717 Z"
       id="path2" />
    <path
       d="m 256,157.003 c -33.267,0 -58.584,13.773 -60.013,32.303 h -0.004 c -0.043,0.549 -0.065,1.102 -0.065,1.656 v 83.592 c 0,19.36 25.83,33.959 60.082,33.959 34.252,0 60.082,-14.599 60.082,-33.959 v -83.592 c 0,-19.359 -25.83,-33.959 -60.082,-33.959 z m 44.408,117.551 c 0,3.743 -4.101,8.027 -10.97,11.463 -8.673,4.336 -20.86,6.823 -33.438,6.823 -27.109,0 -44.408,-10.829 -44.408,-18.286 v -18.461 c 10.819,6.607 26.452,10.625 44.408,10.625 17.956,0 33.589,-4.017 44.408,-10.625 z m 0,-41.795 c 0,3.742 -4.101,8.026 -10.97,11.461 -8.673,4.336 -20.86,6.823 -33.438,6.823 -12.577,0 -24.765,-2.487 -33.438,-6.823 -6.869,-3.435 -10.97,-7.72 -10.97,-11.463 0,-0.146 0.005,-0.291 0.017,-0.434 l -0.017,-0.001 v -18.026 c 10.819,6.607 26.452,10.625 44.408,10.625 17.956,0 33.589,-4.017 44.408,-10.625 z m -10.97,-30.334 c -8.673,4.336 -20.86,6.823 -33.438,6.823 -12.577,0 -24.765,-2.487 -33.438,-6.823 -6.869,-3.435 -10.97,-7.72 -10.97,-11.463 0,-3.743 4.101,-8.028 10.97,-11.463 8.674,-4.336 20.861,-6.823 33.438,-6.823 27.109,0 44.408,10.829 44.408,18.286 0,3.743 -4.101,8.028 -10.97,11.463 z"
       id="path4" />
  </g>
  <g
     id="colored_group-7"
     fill="#b39700"
     transform="matrix(0.225,0,0,0.23799096,6.4,131.07431)">
    <path
       d="m 293.65,430.108 c -3.582,-5.715 -8.425,-10.558 -14.14,-14.14 v -55.87 H 406.538 V 193.877 H 390.865 V 344.426 H 121.135 V 193.877 H 105.462 V 360.099 H 232.49 v 55.87 c -5.715,3.582 -10.558,8.425 -14.14,14.14 H 0 v 47.02 h 218.351 c 7.858,12.538 21.791,20.897 37.649,20.897 15.857,0 29.79,-8.359 37.648,-20.897 H 512 v -47.02 H 293.65 Z m -81.352,31.347 H 15.673 v -15.673 h 196.625 c -0.456,2.545 -0.706,5.161 -0.706,7.836 0,2.675 0.251,5.291 0.706,7.837 z M 248.163,360.1 h 15.673 v 49.816 c -2.545,-0.456 -5.162,-0.706 -7.837,-0.706 -2.675,0 -5.291,0.251 -7.837,0.706 V 360.1 Z M 256,482.352 c -15.845,0 -28.735,-12.891 -28.735,-28.735 0,-15.844 12.89,-28.735 28.735,-28.735 15.845,0 28.735,12.891 28.735,28.735 0,15.844 -12.89,28.735 -28.735,28.735 z M 496.327,461.455 H 299.702 c 0.456,-2.546 0.706,-5.163 0.706,-7.838 0,-2.675 -0.251,-5.29 -0.706,-7.836 h 196.625 z"
       id="path1-5" />
    <path
       d="M 256,13.974 55.907,147.37 87.786,195.188 256,83.045 424.214,195.188 456.093,147.37 Z M 419.867,173.453 256,64.208 92.133,173.453 77.642,151.717 256,32.811 434.357,151.717 Z"
       id="path2-3" />
    <path
       d="m 256,157.003 c -33.267,0 -58.584,13.773 -60.013,32.303 h -0.004 c -0.043,0.549 -0.065,1.102 -0.065,1.656 v 83.592 c 0,19.36 25.83,33.959 60.082,33.959 34.252,0 60.082,-14.599 60.082,-33.959 v -83.592 c 0,-19.359 -25.83,-33.959 -60.082,-33.959 z m 44.408,117.551 c 0,3.743 -4.101,8.027 -10.97,11.463 -8.673,4.336 -20.86,6.823 -33.438,6.823 -27.109,0 -44.408,-10.829 -44.408,-18.286 v -18.461 c 10.819,6.607 26.452,10.625 44.408,10.625 17.956,0 33.589,-4.017 44.408,-10.625 z m 0,-41.795 c 0,3.742 -4.101,8.026 -10.97,11.461 -8.673,4.336 -20.86,6.823 -33.438,6.823 -12.577,0 -24.765,-2.487 -33.438,-6.823 -6.869,-3.435 -10.97,-7.72 -10.97,-11.463 0,-0.146 0.005,-0.291 0.017,-0.434 l -0.017,-0.001 v -18.026 c 10.819,6.607 26.452,10.625 44.408,10.625 17.956,0 33.589,-4.017 44.408,-10.625 z m -10.97,-30.334 c -8.673,4.336 -20.86,6.823 -33.438,6.823 -12.577,0 -24.765,-2.487 -33.438,-6.823 -6.869,-3.435 -10.97,-7.72 -10.97,-11.463 0,-3.743 4.101,-8.028 10.97,-11.463 8.674,-4.336 20.861,-6.823 33.438,-6.823 27.109,0 44.408,10.829 44.408,18.286 0,3.743 -4.101,8.028 -10.97,11.463 z"
       id="path4-5" />
  </g>
  <g
     id="colored_group-9"
     fill="#000000"
     transform="matrix(0.225,0,0,0.23799096,6.4,259.07431)">
    <path
       d="m 293.65,430.108 c -3.582,-5.715 -8.425,-10.558 -14.14,-14.14 v -55.87 H 406.538 V 193.877 H 390.865 V 344.426 H 121.135 V 193.877 H 105.462 V 360.099 H 232.49 v 55.87 c -5.715,3.582 -10.558,8.425 -14.14,14.14 H 0 v 47.02 h 218.351 c 7.858,12.538 21.791,20.897 37.649,20.897 15.857,0 29.79,-8.359 37.648,-20.897 H 512 v -47.02 H 293.65 Z m -81.352,31.347 H 15.673 v -15.673 h 196.625 c -0.456,2.545 -0.706,5.161 -0.706,7.836 0,2.675 0.251,5.291 0.706,7.837 z M 248.163,360.1 h 15.673 v 49.816 c -2.545,-0.456 -5.162,-0.706 -7.837,-0.706 -2.675,0 -5.291,0.251 -7.837,0.706 V 360.1 Z M 256,482.352 c -15.845,0 -28.735,-12.891 -28.735,-28.735 0,-15.844 12.89,-28.735 28.735,-28.735 15.845,0 28.735,12.891 28.735,28.735 0,15.844 -12.89,28.735 -28.735,28.735 z M 496.327,461.455 H 299.702 c 0.456,-2.546 0.706,-5.163 0.706,-7.838 0,-2.675 -0.251,-5.29 -0.706,-7.836 h 196.625 z"
       id="path1-1" />
    <path
       d="M 256,13.974 55.907,147.37 87.786,195.188 256,83.045 424.214,195.188 456.093,147.37 Z M 419.867,173.453 256,64.208 92.133,173.453 77.642,151.717 256,32.811 434.357,151.717 Z"
       id="path2-2" />
    <path
       d="m 256,157.003 c -33.267,0 -58.584,13.773 -60.013,32.303 h -0.004 c -0.043,0.549 -0.065,1.102 -0.065,1.656 v 83.592 c 0,19.36 25.83,33.959 60.082,33.959 34.252,0 60.082,-14.599 60.082,-33.959 v -83.592 c 0,-19.359 -25.83,-33.959 -60.082,-33.959 z m 44.408,117.551 c 0,3.743 -4.101,8.027 -10.97,11.463 -8.673,4.336 -20.86,6.823 -33.438,6.823 -27.109,0 -44.408,-10.829 -44.408,-18.286 v -18.461 c 10.819,6.607 26.452,10.625 44.408,10.625 17.956,0 33.589,-4.017 44.408,-10.625 z m 0,-41.795 c 0,3.742 -4.101,8.026 -10.97,11.461 -8.673,4.336 -20.86,6.823 -33.438,6.823 -12.577,0 -24.765,-2.487 -33.438,-6.823 -6.869,-3.435 -10.97,-7.72 -10.97,-11.463 0,-0.146 0.005,-0.291 0.017,-0.434 l -0.017,-0.001 v -18.026 c 10.819,6.607 26.452,10.625 44.408,10.625 17.956,0 33.589,-4.017 44.408,-10.625 z m -10.97,-30.334 c -8.673,4.336 -20.86,6.823 -33.438,6.823 -12.577,0 -24.765,-2.487 -33.438,-6.823 -6.869,-3.435 -10.97,-7.72 -10.97,-11.463 0,-3.743 4.101,-8.028 10.97,-11.463 8.674,-4.336 20.861,-6.823 33.438,-6.823 27.109,0 44.408,10.829 44.408,18.286 0,3.743 -4.101,8.028 -10.97,11.463 z"
       id="path4-7" />
  </g>
</svg>
