<?xml version="1.0" encoding="UTF-8"?>
<svg
   width="200"
   height="600"
   viewBox="0 0 200 600"
   xmlns="http://www.w3.org/2000/svg"
   xmlns:svg="http://www.w3.org/2000/svg"
 >
   <path
     style="fill:#964b00;fill-opacity:1;stroke-width:0.334576"
     d="M 135.58762,152.56484 C 116.02744,150.05457 100.84419,135.74505 87.676718,122.20232 79.185694,113.53561 71.84224,103.21664 61.210584,97.057699 59.574233,102.73837 60.977515,109.20875 60.69255,115.1856 c -0.07207,11.38967 0.63345,22.94566 -1.145638,34.21163 -2.448286,-5.13877 -5.151263,-11.20838 -8.437397,-16.32994 -5.928335,-9.69559 -12.489711,-19.10465 -20.567567,-27.13782 6.597012,1.46354 15.118599,4.44261 20.616765,-1.15981 4.163881,-5.136491 2.603526,-13.594361 -4.1453,-15.591131 -5.039785,-2.27379 -10.562895,-2.1944 -15.142052,0.55353 -4.304858,2.58331 -8.243635,7.29968 -7.326112,-0.0151 0.785881,-6.26533 8.01977,-8.64836 9.674562,-11.96613 -4.093407,-4.15222 8.995202,-4.36459 13.761697,-5.79751 17.687155,-5.31721 35.619693,-12.89314 54.454952,-10.20926 21.07402,2.91802 41.16803,10.38129 61.34197,16.80291 5.65609,1.46259 11.42704,1.41968 17.22157,1.16871 -10.09371,5.84002 -22.07436,6.69775 -32.56936,11.63528 -14.48324,5.80903 -29.62711,10.738641 -45.41209,10.550691 -8.751294,0.14263 -17.53393,-0.28046 -26.171187,-1.75823 11.096127,11.13989 22.215215,22.32283 33.952227,32.7811 11.68424,8.76998 26.97261,15.8969 41.7105,11.49771 7.84622,-2.72449 12.29194,-15.07488 4.96489,-20.65133 -2.87313,-2.16669 -13.05341,-1.18747 -5.11023,0.90179 5.82322,4.4989 3.19334,15.08231 -4.30914,15.74025 -6.96278,1.55396 -13.33343,-5.07118 -12.39234,-11.95796 0.61324,-12.68219 17.7671,-17.46019 27.08554,-10.72587 10.3439,7.49907 8.15259,25.62367 -3.1496,31.20931 -7.22107,4.12362 -15.92727,4.6152 -24.01159,3.62645 z M 110.36051,94.309309 c 14.25275,-1.48972 28.1817,-5.7858 41.23775,-11.68556 -5.76694,-3.01461 -12.5044,-4.54814 -18.76381,-6.62102 -8.81878,-2.92044 -17.85574,-5.745 -27.17,-6.3676 4.76187,7.34654 3.01482,18.0262 -3.99664,23.40588 -7.604584,4.41954 7.71043,1.37097 8.6927,1.2683 z m -18.186719,-0.17517 c 8.428399,-1.6974 14.304969,-11.28632 11.184489,-19.97429 -1.13397,-3.15716 -6.19035,-6.77241 -2.65738,-1.49804 4.39705,6.56436 -0.3164,16.48881 -8.234069,18.39472 -6.649378,1.60062 -14.307093,-1.86493 -16.374397,-8.52144 6.189385,0.26301 7.440639,-14.34397 0.676382,-9.46285 -6.039903,7.44647 -0.968722,20.59177 8.92563,21.18453 2.16483,0.12969 4.358767,0.30444 6.479345,-0.12263 z m -18.571916,-3.57722 c -4.530784,-5.06916 -4.555962,-12.32105 -3.063838,-18.51158 -9.349012,2.89055 -16.274219,5.63748 -28.308456,7.99744 -4.20841,0.82528 -2.271879,1.79203 3.07998,1.42942 2.074832,-0.14058 9.975461,3.87734 15.015585,5.67285 4.660072,1.66013 9.656091,3.73093 14.072072,4.71387 l -0.09418,-0.28657 z M 154.9206,68.509859 C 132.48077,64.806089 110.8335,54.716389 87.724256,56.302169 70.586302,57.433509 55.119075,66.585009 38.012947,67.681199 31.517451,67.562549 25.060725,65.924809 19,63.690459 c 4.557376,-1.67305 12.441237,-0.16622 18.12396,-2.36381 20.684772,-5.03273 40.631334,-15.97338 62.463852,-14.11688 21.079088,2.17525 40.568498,11.26588 61.031528,16.10359 4.47666,1.73414 12.74904,-0.18253 15.29759,1.83759 -6.68908,1.91613 -13.96535,4.72636 -20.99633,3.35891 z"
     id="path01" />
   <path
     style="fill:#b39700;fill-opacity:1;stroke-width:0.334576"
     d="M 135.58762,352.56484 C 116.02744,350.05457 100.84419,335.74505 87.676718,322.20232 79.185694,313.53561 71.84224,303.21664 61.210584,297.0577 c -1.636351,5.68067 -0.233069,12.15105 -0.518034,18.1279 -0.07207,11.38967 0.63345,22.94566 -1.145638,34.21163 -2.448286,-5.13877 -5.151263,-11.20838 -8.437397,-16.32994 -5.928335,-9.69559 -12.489711,-19.10465 -20.567567,-27.13782 6.597012,1.46354 15.118599,4.44261 20.616765,-1.15981 4.163881,-5.13649 2.603526,-13.59436 -4.1453,-15.59113 -5.039785,-2.27379 -10.562895,-2.1944 -15.142052,0.55353 -4.304858,2.58331 -8.243635,7.29968 -7.326112,-0.0151 0.785881,-6.26533 8.01977,-8.64836 9.674562,-11.96613 -4.093407,-4.15222 8.995202,-4.36459 13.761697,-5.79751 17.687155,-5.31721 35.619693,-12.89314 54.454952,-10.20926 21.07402,2.91802 41.16803,10.38129 61.34197,16.80291 5.65609,1.46259 11.42704,1.41968 17.22157,1.16871 -10.09371,5.84002 -22.07436,6.69775 -32.56936,11.63528 -14.48324,5.80903 -29.62711,10.73864 -45.41209,10.55069 -8.751294,0.14263 -17.53393,-0.28046 -26.171187,-1.75823 11.096127,11.13989 22.215215,22.32283 33.952227,32.7811 11.68424,8.76998 26.97261,15.8969 41.7105,11.49771 7.84622,-2.72449 12.29194,-15.07488 4.96489,-20.65133 -2.87313,-2.16669 -13.05341,-1.18747 -5.11023,0.90179 5.82322,4.4989 3.19334,15.08231 -4.30914,15.74025 -6.96278,1.55396 -13.33343,-5.07118 -12.39234,-11.95796 0.61324,-12.68219 17.7671,-17.46019 27.08554,-10.72587 10.3439,7.49907 8.15259,25.62367 -3.1496,31.20931 -7.22107,4.12362 -15.92727,4.6152 -24.01159,3.62645 z m -25.22711,-58.25553 c 14.25275,-1.48972 28.1817,-5.7858 41.23775,-11.68556 -5.76694,-3.01461 -12.5044,-4.54814 -18.76381,-6.62102 -8.81878,-2.92044 -17.85574,-5.745 -27.17,-6.3676 4.76187,7.34654 3.01482,18.0262 -3.99664,23.40588 -7.604584,4.41954 7.71043,1.37097 8.6927,1.2683 z m -18.186719,-0.17517 c 8.428399,-1.6974 14.304969,-11.28632 11.184489,-19.97429 -1.13397,-3.15716 -6.19035,-6.77241 -2.65738,-1.49804 4.39705,6.56436 -0.3164,16.48881 -8.234069,18.39472 -6.649378,1.60062 -14.307093,-1.86493 -16.374397,-8.52144 6.189385,0.26301 7.440639,-14.34397 0.676382,-9.46285 -6.039903,7.44647 -0.968722,20.59177 8.92563,21.18453 2.16483,0.12969 4.358767,0.30444 6.479345,-0.12263 z m -18.571916,-3.57722 c -4.530784,-5.06916 -4.555962,-12.32105 -3.063838,-18.51158 -9.349012,2.89055 -16.274219,5.63748 -28.308456,7.99744 -4.20841,0.82528 -2.271879,1.79203 3.07998,1.42942 2.074832,-0.14058 9.975461,3.87734 15.015585,5.67285 4.660072,1.66013 9.656091,3.73093 14.072072,4.71387 l -0.09418,-0.28657 z M 154.9206,268.50986 C 132.48077,264.80609 110.8335,254.71639 87.724256,256.30217 70.586302,257.43351 55.119075,266.58501 38.012947,267.6812 31.517451,267.56255 25.060725,265.92481 19,263.69046 c 4.557376,-1.67305 12.441237,-0.16622 18.12396,-2.36381 20.684772,-5.03273 40.631334,-15.97338 62.463852,-14.11688 21.079088,2.17525 40.568498,11.26588 61.031528,16.10359 4.47666,1.73414 12.74904,-0.18253 15.29759,1.83759 -6.68908,1.91613 -13.96535,4.72636 -20.99633,3.35891 z"
     id="path02" />
   <path
     style="fill:#000000;fill-opacity:1;stroke-width:0.334576"
     d="M 135.58762,552.56484 C 116.02744,550.05457 100.84419,535.74505 87.676718,522.20232 79.185694,513.53561 71.84224,503.21664 61.210584,497.0577 c -1.636351,5.68067 -0.233069,12.15105 -0.518034,18.1279 -0.07207,11.38967 0.63345,22.94566 -1.145638,34.21163 -2.448286,-5.13877 -5.151263,-11.20838 -8.437397,-16.32994 -5.928335,-9.69559 -12.489711,-19.10465 -20.567567,-27.13782 6.597012,1.46354 15.118599,4.44261 20.616765,-1.15981 4.163881,-5.13649 2.603526,-13.59436 -4.1453,-15.59113 -5.039785,-2.27379 -10.562895,-2.1944 -15.142052,0.55353 -4.304858,2.58331 -8.243635,7.29968 -7.326112,-0.0151 0.785881,-6.26533 8.01977,-8.64836 9.674562,-11.96613 -4.093407,-4.15222 8.995202,-4.36459 13.761697,-5.79751 17.687155,-5.31721 35.619693,-12.89314 54.454952,-10.20926 21.07402,2.91802 41.16803,10.38129 61.34197,16.80291 5.65609,1.46259 11.42704,1.41968 17.22157,1.16871 -10.09371,5.84002 -22.07436,6.69775 -32.56936,11.63528 -14.48324,5.80903 -29.62711,10.73864 -45.41209,10.55069 -8.751294,0.14263 -17.53393,-0.28046 -26.171187,-1.75823 11.096127,11.13989 22.215215,22.32283 33.952227,32.7811 11.68424,8.76998 26.97261,15.8969 41.7105,11.49771 7.84622,-2.72449 12.29194,-15.07488 4.96489,-20.65133 -2.87313,-2.16669 -13.05341,-1.18747 -5.11023,0.90179 5.82322,4.4989 3.19334,15.08231 -4.30914,15.74025 -6.96278,1.55396 -13.33343,-5.07118 -12.39234,-11.95796 0.61324,-12.68219 17.7671,-17.46019 27.08554,-10.72587 10.3439,7.49907 8.15259,25.62367 -3.1496,31.20931 -7.22107,4.12362 -15.92727,4.6152 -24.01159,3.62645 z m -25.22711,-58.25553 c 14.25275,-1.48972 28.1817,-5.7858 41.23775,-11.68556 -5.76694,-3.01461 -12.5044,-4.54814 -18.76381,-6.62102 -8.81878,-2.92044 -17.85574,-5.745 -27.17,-6.3676 4.76187,7.34654 3.01482,18.0262 -3.99664,23.40588 -7.604584,4.41954 7.71043,1.37097 8.6927,1.2683 z m -18.186719,-0.17517 c 8.428399,-1.6974 14.304969,-11.28632 11.184489,-19.97429 -1.13397,-3.15716 -6.19035,-6.77241 -2.65738,-1.49804 4.39705,6.56436 -0.3164,16.48881 -8.234069,18.39472 -6.649378,1.60062 -14.307093,-1.86493 -16.374397,-8.52144 6.189385,0.26301 7.440639,-14.34397 0.676382,-9.46285 -6.039903,7.44647 -0.968722,20.59177 8.92563,21.18453 2.16483,0.12969 4.358767,0.30444 6.479345,-0.12263 z m -18.571916,-3.57722 c -4.530784,-5.06916 -4.555962,-12.32105 -3.063838,-18.51158 -9.349012,2.89055 -16.274219,5.63748 -28.308456,7.99744 -4.20841,0.82528 -2.271879,1.79203 3.07998,1.42942 2.074832,-0.14058 9.975461,3.87734 15.015585,5.67285 4.660072,1.66013 9.656091,3.73093 14.072072,4.71387 l -0.09418,-0.28657 z M 154.9206,468.50986 C 132.48077,464.80609 110.8335,454.71639 87.724256,456.30217 70.586302,457.43351 55.119075,466.58501 38.012947,467.6812 31.517451,467.56255 25.060725,465.92481 19,463.69046 c 4.557376,-1.67305 12.441237,-0.16622 18.12396,-2.36381 20.684772,-5.03273 40.631334,-15.97338 62.463852,-14.11688 21.079088,2.17525 40.568498,11.26588 61.031528,16.10359 4.47666,1.73414 12.74904,-0.18253 15.29759,1.83759 -6.68908,1.91613 -13.96535,4.72636 -20.99633,3.35891 z"
     id="path03" />
</svg>
