<?xml version="1.0" encoding="utf-8"?>
<svg width="200px" height="600px" viewBox="0 0 6 18" fill="none" xmlns="http://www.w3.org/2000/svg">
  <path
     d="m 1.0,1.4 c 0,-0.14 0,-0.21 0.027236,-0.2633833 0.023959,-0.04702 0.062187,-0.085248 0.1092077,-0.1092078 0.053454,-0.027235 0.1234315,-0.027235 0.2633834,-0.027235 h 0.7 c 0.14,0 0.21,0 0.2633835,0.027235 0.04702,0.023959 0.085248,0.062188 0.1092077,0.1092078 0.027236,0.053455 0.027236,0.1234315 0.027236,0.2633833 V 2.6 c 0,0.14 0,0.21 -0.027236,0.2633858 -0.023959,0.04703 -0.062187,0.085238 -0.1092077,0.1092028 -0.053454,0.027238 -0.1234313,0.027238 -0.2633832,0.027238 H 1.4 c -0.14,0 -0.21,0 -0.2633834,-0.027238 C 1.0902899,2.9487978 1.052062,2.9105885 1.0281021,2.8635588 1.0,2.8101069 1.0,2.7401373 1.0,2.6 Z"
     stroke="#964b00"
     stroke-width="0.499783"
     stroke-linecap="round"
     stroke-linejoin="round"
     id="path1" />
  <path
     d="m 3.5,3.4 c 0,-0.14 0,-0.21 0.027239,-0.2633857 0.023965,-0.04703 0.062174,-0.085238 0.1092031,-0.1092029 0.053451,-0.027238 0.1234206,-0.027238 0.2633849,-0.027238 h 0.7 c 0.14,0 0.21,0 0.263386,0.027238 0.04703,0.023964 0.085238,0.062173 0.1092033,0.1092029 0.027238,0.053452 0.027238,0.1234214 0.027238,0.2633857 V 4.6 c 0,0.14 0,0.21 -0.027238,0.2633857 -0.023965,0.04703 -0.062174,0.085238 -0.1092033,0.1092028 -0.053452,0.027238 -0.1234215,0.027238 -0.263386,0.027238 h -0.7 c -0.14,0 -0.21,0 -0.2633859,-0.027238 C 3.5891955,4.9479309 3.5509865,4.9097224 3.5270213,4.8626927 3.5,4.809241 3.5,4.7392712 3.5,4.6 Z"
     stroke="#964b00"
     stroke-width="0.499783"
     stroke-linecap="round"
     stroke-linejoin="round"
     id="path2" />
  <path
     d="m 1.0,4.4 c 0,-0.14 0,-0.21 0.027236,-0.2633859 0.023959,-0.04703 0.062188,-0.085238 0.1092075,-0.1092028 0.053454,-0.027238 0.1234315,-0.027238 0.2633834,-0.027238 h 0.7 c 0.14,0 0.21,0 0.2633835,0.027238 0.04702,0.023964 0.085248,0.062173 0.1092077,0.1092028 0.027236,0.053452 0.027236,0.1234214 0.027236,0.2633859 V 4.6 c 0,0.14 0,0.21 -0.027236,0.2633857 -0.023959,0.04703 -0.062188,0.085238 -0.1092077,0.1092028 -0.053454,0.027238 -0.1234317,0.027238 -0.2633835,0.027238 H 1.4 c -0.14,0 -0.21,0 -0.2633834,-0.027238 C 1.0902899,4.9479315 1.0520617,4.9097222 1.0281021,4.8626929 1.0,4.8092414 1.0,4.7392714 1.0,4.62 Z"
     stroke="#964b00"
     stroke-width="0.499783"
     stroke-linecap="round"
     stroke-linejoin="round"
     id="path3" />
  <path
     d="m 3.5,1.4 c 0,-0.14 0,-0.21 0.027239,-0.2633833 0.023964,-0.04702 0.062172,-0.085248 0.1092021,-0.1092078 0.053452,-0.027235 0.1234216,-0.027235 0.2633859,-0.027235 h 0.7 c 0.14,0 0.21,0 0.263386,0.027235 0.04703,0.023959 0.085238,0.062188 0.1092033,0.1092078 0.027238,0.053455 0.027238,0.1234315 0.027238,0.2633833 v 0.2 c 0,0.14 0,0.21 -0.027238,0.2633835 -0.023965,0.04702 -0.062174,0.085248 -0.1092033,0.1092076 -0.053452,0.027235 -0.1234215,0.027235 -0.263386,0.027235 h -0.7 c -0.14,0 -0.21,0 -0.2633859,-0.027235 C 3.5891953,1.949237 3.5509863,1.911009 3.5270213,1.8639894 3.5,1.8105354 3.5,1.7405578 3.5,1.6 Z"
     stroke="#964b00"
     stroke-width="0.499783"
     stroke-linecap="round"
     stroke-linejoin="round"
     id="path4" />
  <path
     d="m 1.0,7.4 c 0,-0.14 0,-0.21 0.027236,-0.2633833 0.023959,-0.04702 0.062187,-0.085248 0.1092077,-0.1092078 0.053454,-0.027235 0.1234315,-0.027235 0.2633834,-0.027235 h 0.7 c 0.14,0 0.21,0 0.2633835,0.027235 0.04702,0.023959 0.085248,0.062188 0.1092077,0.1092078 0.027236,0.053455 0.027236,0.1234315 0.027236,0.2633833 V 8.6 c 0,0.14 0,0.21 -0.027236,0.2633858 -0.023959,0.04703 -0.062187,0.085238 -0.1092077,0.1092028 -0.053454,0.027238 -0.1234313,0.027238 -0.2633832,0.027238 H 1.4 c -0.14,0 -0.21,0 -0.2633834,-0.027238 C 1.0902899,8.9487978 1.052062,8.9105885 1.0281021,8.8635588 1.0,8.8101069 1.0,8.7401373 1.0,8.6 Z"
     stroke="#b39700"
     stroke-width="0.499783"
     stroke-linecap="round"
     stroke-linejoin="round"
     id="path5" />
  <path
     d="m 3.5,9.4 c 0,-0.14 0,-0.21 0.027239,-0.2633857 0.023965,-0.04703 0.062174,-0.085238 0.1092031,-0.1092029 0.053451,-0.027238 0.1234206,-0.027238 0.2633849,-0.027238 h 0.7 c 0.14,0 0.21,0 0.263386,0.027238 0.04703,0.023964 0.085238,0.062173 0.1092033,0.1092029 0.027238,0.053452 0.027238,0.1234214 0.027238,0.2633857 v 1.2 c 0,0.14 0,0.21 -0.027238,0.263386 -0.023965,0.04703 -0.062174,0.08524 -0.1092033,0.109203 -0.053452,0.02724 -0.1234215,0.02724 -0.263386,0.02724 h -0.7 c -0.14,0 -0.21,0 -0.2633859,-0.02724 -0.047029,-0.02396 -0.085238,-0.06217 -0.109203,-0.109203 -0.027239,-0.05345 -0.027239,-0.123422 -0.027239,-0.263386 z"
     stroke="#b39700"
     stroke-width="0.499783"
     stroke-linecap="round"
     stroke-linejoin="round"
     id="path6" />
  <path
     d="m 1.0,10.4 c 0,-0.14 0,-0.21 0.027236,-0.263386 0.023959,-0.04703 0.062188,-0.08524 0.1092075,-0.109203 0.053454,-0.027238 0.1234315,-0.027238 0.2633834,-0.027238 h 0.7 c 0.14,0 0.21,0 0.2633835,0.027238 0.04702,0.02396 0.085248,0.06217 0.1092077,0.109203 0.027236,0.05345 0.027236,0.123421 0.027236,0.263386 v 0.2 c 0,0.14 0,0.21 -0.027236,0.263386 -0.023959,0.04703 -0.062188,0.08524 -0.1092077,0.109203 -0.053454,0.02724 -0.1234317,0.02724 -0.2633835,0.02724 H 1.4 c -0.14,0 -0.21,0 -0.2633834,-0.02724 -0.04702,-0.02396 -0.085248,-0.06217 -0.1092077,-0.109203 -0.027235,-0.05345 -0.027235,-0.123422 -0.027235,-0.263386 z"
     stroke="#b39700"
     stroke-width="0.499783"
     stroke-linecap="round"
     stroke-linejoin="round"
     id="path7" />
  <path
     d="m 3.5,7.4 c 0,-0.14 0,-0.21 0.027239,-0.2633833 0.023964,-0.04702 0.062172,-0.085248 0.1092021,-0.1092078 0.053452,-0.027235 0.1234216,-0.027235 0.2633859,-0.027235 h 0.7 c 0.14,0 0.21,0 0.263386,0.027235 0.04703,0.023959 0.085238,0.062188 0.1092033,0.1092078 0.027238,0.053455 0.027238,0.1234315 0.027238,0.2633833 v 0.2 c 0,0.14 0,0.21 -0.027238,0.2633835 -0.023965,0.04702 -0.062174,0.085248 -0.1092033,0.1092076 -0.053452,0.027235 -0.1234215,0.027235 -0.263386,0.027235 h -0.7 c -0.14,0 -0.21,0 -0.2633859,-0.027235 C 3.5891953,7.949237 3.5509863,7.911009 3.5270213,7.8639894 3.5,7.8105354 3.5,7.7405578 3.5,7.6 Z"
     stroke="#b39700"
     stroke-width="0.499783"
     stroke-linecap="round"
     stroke-linejoin="round"
     id="path8" />
  <path
     d="m 1.0,13.4 c 0,-0.14 0,-0.21 0.027236,-0.263384 0.023959,-0.04702 0.062187,-0.08525 0.1092077,-0.109208 0.053454,-0.02723 0.1234315,-0.02723 0.2633834,-0.02723 h 0.7 c 0.14,0 0.21,0 0.2633835,0.02723 0.04702,0.02396 0.085248,0.06219 0.1092077,0.109208 0.027236,0.05345 0.027236,0.123432 0.027236,0.263384 v 1.19948 c 0,0.14 0,0.21 -0.027236,0.263386 -0.023959,0.04703 -0.062187,0.08524 -0.1092077,0.109203 C 2.3103197,15 2.2403424,15 2.1,15 H 1.4 c -0.14,0 -0.21,0 -0.2633834,-0.02724 -0.04702,-0.02396 -0.085248,-0.06217 -0.1092077,-0.109203 -0.027236,-0.05345 -0.027236,-0.123422 -0.027236,-0.263386 z"
     stroke="#000000"
     stroke-width="0.499783"
     stroke-linecap="round"
     stroke-linejoin="round"
     id="path9" />
  <path
     d="m 3.5,15.4 c 0,-0.14 0,-0.21 0.027239,-0.263385 0.023965,-0.04703 0.062174,-0.08524 0.1092031,-0.109203 C 3.6896768,15 3.7596464,15 3.9,15 h 0.7 c 0.14,0 0.21,0 0.263386,0.02724 0.04703,0.02396 0.085238,0.06217 0.1092033,0.109203 0.027238,0.05345 0.027238,0.123421 0.027238,0.263385 v 1.2 c 0,0.14 0,0.21 -0.027238,0.263386 -0.023965,0.04703 -0.062174,0.08524 -0.1092033,0.109203 -0.053452,0.02724 -0.1234215,0.02724 -0.263386,0.02724 h -0.7 c -0.14,0 -0.21,0 -0.2633859,-0.02724 -0.047029,-0.02397 -0.085238,-0.06217 -0.109203,-0.109203 -0.027239,-0.05345 -0.027239,-0.123422 -0.027239,-0.263386 z"
     stroke="#000000"
     stroke-width="0.499783"
     stroke-linecap="round"
     stroke-linejoin="round"
     id="path10" />
  <path
     d="m 1.0,16.4 c 0,-0.14 0,-0.21 0.027236,-0.263386 0.023959,-0.04703 0.062188,-0.08524 0.1092075,-0.109203 0.053454,-0.02724 0.1234315,-0.02724 0.2633834,-0.02724 h 0.7 c 0.14,0 0.21,0 0.2633835,0.02724 0.04702,0.02396 0.085248,0.06217 0.1092077,0.109203 0.027236,0.05345 0.027236,0.123421 0.027236,0.263386 v 0.2 c 0,0.14 0,0.21 -0.027236,0.263386 -0.023959,0.04703 -0.062188,0.08524 -0.1092077,0.109203 -0.053454,0.02724 -0.1234317,0.02724 -0.2633835,0.02724 H 1.4 c -0.14,0 -0.21,0 -0.2633834,-0.02724 -0.04702,-0.02396 -0.085248,-0.06217 -0.1092077,-0.109203 -0.027235,-0.05345 -0.027235,-0.123422 -0.027235,-0.263386 z"
     stroke="#000000"
     stroke-width="0.499783"
     stroke-linecap="round"
     stroke-linejoin="round"
     id="path11" />
  <path
     d="m 3.5,13.4 c 0,-0.14 0,-0.21 0.027239,-0.263384 0.023964,-0.04702 0.062172,-0.08525 0.1092021,-0.109208 0.053452,-0.02723 0.1234216,-0.02723 0.2633859,-0.02723 h 0.7 c 0.14,0 0.21,0 0.263386,0.02723 0.04703,0.02396 0.085238,0.06219 0.1092033,0.109208 0.027238,0.05345 0.027238,0.123432 0.027238,0.263384 v 0.2 c 0,0.14 0,0.21 -0.027238,0.263383 -0.023965,0.04702 -0.062174,0.08525 -0.1092033,0.109208 -0.053452,0.02723 -0.1234215,0.02723 -0.263386,0.02723 h -0.7 c -0.14,0 -0.21,0 -0.2633859,-0.02723 -0.047029,-0.02396 -0.085238,-0.06219 -0.109203,-0.109208 -0.027239,-0.05345 -0.027239,-0.123431 -0.027239,-0.263383 z"
     stroke="#000000"
     stroke-width="0.499783"
     stroke-linecap="round"
     stroke-linejoin="round"
     id="path12" />
</svg>
