<?xml version="1.0" encoding="UTF-8" standalone="no"?>
<svg height="600" viewBox="-2 -2 28 28" width="200" xmlns="http://www.w3.org/2000/svg" xmlns:svg="http://www.w3.org/2000/svg"><path d="m 22.563,-26.563063 c -2.374,-2.374 -5.919,-1.795 -10.563,1.7 -4.643,-3.495 -8.187,-4.075 -10.563,-1.7 -2.376,2.375 -1.795,5.919 1.7,10.563 -3.495,4.643 -4.075,8.1880003 -1.7,10.5630003 a 4.7,4.7 0 0 0 3.442,1.437 c 1.971,0 4.351,-1.052 7.121,-3.136 2.769,2.084 5.149,3.136 7.121,3.136 a 4.7,4.7 0 0 0 3.442,-1.437 c 2.375,-2.375 1.8,-5.9190003 -1.7,-10.5630003 3.495,-4.644 4.075,-8.188 1.7,-10.563 z m -3.478,0.591 a 2.806,2.806 0 0 1 2.067,0.819 c 1.746,1.747 0.456,4.713 -1.588,7.539 -0.838,-0.988 -1.782,-2.015 -2.858,-3.092 -1.076,-1.077 -2.106,-2.021 -3.094,-2.86 1.898,-1.373 3.86,-2.406 5.473,-2.406 z m -0.774,9.972 c -1.011,1.22 -2.082,2.361 -3.016,3.3 -0.934,0.939 -2.075,2 -3.295,3.0110003 -1.22,-1.0110003 -2.361,-2.0820003 -3.295,-3.0110003 -0.934,-0.929 -2.005,-2.08 -3.016,-3.3 1.011,-1.22 2.082,-2.362 3.016,-3.295 0.934,-0.933 2.075,-2.005 3.295,-3.017 1.22,1.01 2.361,2.083 3.3,3.017 0.939,0.934 2,2.075 3.011,3.295 z m -15.463,-9.152 a 2.8,2.8 0 0 1 2.067,-0.82 c 1.613,0 3.575,1.033 5.473,2.406 -0.988,0.839 -2.016,1.783 -3.094,2.86 -1.078,1.077 -2.02,2.1 -2.859,3.092 -2.043,-2.826 -3.335,-5.792 -1.587,-7.538 z m 0,18.3000003 c -1.746,-1.746 -0.456,-4.7130003 1.587,-7.5380003 0.839,0.988 1.783,2.015 2.859,3.092 1.076,1.077 2.1,2.0230003 3.089,2.8610003 -2.825,2.046 -5.791,3.337 -7.535,1.589 z m 18.3,0 c -1.745,1.744 -4.71,0.457 -7.535,-1.585 0.986,-0.838 2.014,-1.7870003 3.089,-2.8610003 1.075,-1.074 2.02,-2.1 2.858,-3.092 2.048,2.83 3.34,5.7960003 1.592,7.5420003 z" style="fill:#964b00;fill-opacity:1" id="path1"/><circle cx="12" cy="-16.000063" r="2" style="fill:#964b00;fill-opacity:1" id="circle1"/><path d="m 22.563,29.436937 c -2.374,-2.374 -5.919,-1.795 -10.563,1.7 -4.643,-3.495 -8.187,-4.075 -10.563,-1.7 -2.376,2.375 -1.795,5.919 1.7,10.563 -3.495,4.643 -4.075,8.188 -1.7,10.563 a 4.7,4.7 0 0 0 3.442,1.437 c 1.971,0 4.351,-1.052 7.121,-3.136 2.769,2.084 5.149,3.136 7.121,3.136 a 4.7,4.7 0 0 0 3.442,-1.437 c 2.375,-2.375 1.8,-5.919 -1.7,-10.563 3.495,-4.644 4.075,-8.188 1.7,-10.563 z m -3.478,0.591 a 2.806,2.806 0 0 1 2.067,0.819 c 1.746,1.747 0.456,4.713 -1.588,7.539 -0.838,-0.988 -1.782,-2.015 -2.858,-3.092 -1.076,-1.077 -2.106,-2.021 -3.094,-2.86 1.898,-1.373 3.86,-2.406 5.473,-2.406 z m -0.774,9.972 c -1.011,1.22 -2.082,2.361 -3.016,3.3 -0.934,0.939 -2.075,2 -3.295,3.011 -1.22,-1.011 -2.361,-2.082 -3.295,-3.011 -0.934,-0.929 -2.005,-2.08 -3.016,-3.3 1.011,-1.22 2.082,-2.362 3.016,-3.295 0.934,-0.933 2.075,-2.005 3.295,-3.017 1.22,1.01 2.361,2.083 3.3,3.017 0.939,0.934 2,2.075 3.011,3.295 z m -15.463,-9.152 a 2.8,2.8 0 0 1 2.067,-0.82 c 1.613,0 3.575,1.033 5.473,2.406 -0.988,0.839 -2.016,1.783 -3.094,2.86 -1.078,1.077 -2.02,2.1 -2.859,3.092 -2.043,-2.826 -3.335,-5.792 -1.587,-7.538 z m 0,18.3 c -1.746,-1.746 -0.456,-4.713 1.587,-7.538 0.839,0.988 1.783,2.015 2.859,3.092 1.076,1.077 2.1,2.023 3.089,2.861 -2.825,2.046 -5.791,3.337 -7.535,1.589 z m 18.3,0 c -1.745,1.744 -4.71,0.457 -7.535,-1.585 0.986,-0.838 2.014,-1.787 3.089,-2.861 1.075,-1.074 2.02,-2.1 2.858,-3.092 2.048,2.83 3.34,5.796 1.592,7.542 z" style="fill:#000000;fill-opacity:1" id="path1-7"/><circle cx="12" cy="39.999939" r="2" style="fill:#000000;fill-opacity:1" id="circle1-5"/><path d="M 22.563,1.437 C 20.189,-0.937 16.644,-0.358 12,3.137 7.357,-0.358 3.813,-0.938 1.437,1.437 -0.939,3.812 -0.358,7.356 3.137,12 c -3.495,4.643 -4.075,8.188 -1.7,10.563 A 4.7,4.7 0 0 0 4.879,24 C 6.85,24 9.23,22.948 12,20.864 14.769,22.948 17.149,24 19.121,24 a 4.7,4.7 0 0 0 3.442,-1.437 c 2.375,-2.375 1.8,-5.919 -1.7,-10.563 3.495,-4.644 4.075,-8.188 1.7,-10.563 z m -3.478,0.591 a 2.806,2.806 0 0 1 2.067,0.819 C 22.898,4.594 21.608,7.56 19.564,10.386 18.726,9.398 17.782,8.371 16.706,7.294 15.63,6.217 14.6,5.273 13.612,4.434 15.51,3.061 17.472,2.028 19.085,2.028 Z M 18.311,12 C 17.3,13.22 16.229,14.361 15.295,15.3 14.361,16.239 13.22,17.3 12,18.311 10.78,17.3 9.639,16.229 8.705,15.3 7.771,14.371 6.7,13.22 5.689,12 6.7,10.78 7.771,9.638 8.705,8.705 9.639,7.772 10.78,6.7 12,5.688 c 1.22,1.01 2.361,2.083 3.3,3.017 0.939,0.934 2,2.075 3.011,3.295 z M 2.848,2.848 a 2.8,2.8 0 0 1 2.067,-0.82 c 1.613,0 3.575,1.033 5.473,2.406 C 9.4,5.273 8.372,6.217 7.294,7.294 6.216,8.371 5.274,9.394 4.435,10.386 2.392,7.56 1.1,4.594 2.848,2.848 Z m 0,18.3 C 1.102,19.402 2.392,16.435 4.435,13.61 c 0.839,0.988 1.783,2.015 2.859,3.092 1.076,1.077 2.1,2.023 3.089,2.861 -2.825,2.046 -5.791,3.337 -7.535,1.589 z m 18.3,0 c -1.745,1.744 -4.71,0.457 -7.535,-1.585 0.986,-0.838 2.014,-1.787 3.089,-2.861 1.075,-1.074 2.02,-2.1 2.858,-3.092 2.048,2.83 3.34,5.796 1.592,7.542 z" style="fill:#b39700;fill-opacity:1" id="path1-6"/><circle cx="12" cy="12" r="2" style="fill:#b39700;fill-opacity:1" id="circle1-2"/></svg>
