<?xml version="1.0" encoding="utf-8"?>
<svg width="200px" height="600px" viewBox="0 0 24 72" xmlns="http://www.w3.org/2000/svg">

<path id="path1" d="m 21.730304,11.22565 -6.583967,3.9032 v 0 a 0.83340274,0.83385 0 0 1 -0.475745,0.22355 0.72975837,0.73015 0 0 1 -0.747598,-0.23885 l -3.627553,-3.5938 -3.6360488,3.6091 a 0.86483587,0.8653 0 0 1 -1.2148481,0 v 0 a 0.84954408,0.85 0 0 1 0,-1.2019 l 4.239225,-4.2075 a 0.87587994,0.87635 0 0 1 1.2233439,0 l 3.678526,3.64905 6.397066,-3.79695 a 0.77903192,0.77945 0 0 1 1.129894,0.3774 v 0 a 1.0253997,1.02595 0 0 1 -0.382295,1.2767 z M 21.339514,20.5 a 0.84954408,0.85 0 0 1 0,1.7 H 2.6495441 A 0.84954408,0.85 0 0 1 1.8,21.35 V 2.65 a 0.8495441,0.85 0 0 1 1.6990882,0 V 20.5 Z" style="fill:#964b00;fill-opacity:1;stroke-width:0.849772" /><path id="path2" d="m 21.730304,11.22565 -6.583967,3.9032 v 0 a 0.83340274,0.83385 0 0 1 -0.475745,0.22355 0.72975837,0.73015 0 0 1 -0.747598,-0.23885 l -3.627553,-3.5938 -3.6360488,3.6091 a 0.86483587,0.8653 0 0 1 -1.2148481,0 v 0 a 0.84954408,0.85 0 0 1 0,-1.2019 l 4.239225,-4.2075 a 0.87587994,0.87635 0 0 1 1.2233439,0 l 3.678526,3.64905 6.397066,-3.79695 a 0.77903192,0.77945 0 0 1 1.129894,0.3774 v 0 a 1.0253997,1.02595 0 0 1 -0.382295,1.2767 z M 21.339514,20.5 a 0.84954408,0.85 0 0 1 0,1.7 H 2.6495441 A 0.84954408,0.85 0 0 1 1.8,21.35 V 2.65 a 0.8495441,0.85 0 0 1 1.6990882,0 V 20.5 Z"  style="fill:#964b00;fill-opacity:1;stroke-width:0.849772"/>

<path id="path3" d="m 21.730304,35.22565 -6.583967,3.9032 v 0 a 0.83340274,0.83385 0 0 1 -0.475745,0.22355 0.72975837,0.73015 0 0 1 -0.747598,-0.23885 l -3.627553,-3.5938 -3.6360488,3.6091 a 0.86483587,0.8653 0 0 1 -1.2148481,0 v 0 a 0.84954408,0.85 0 0 1 0,-1.2019 l 4.239225,-4.2075 a 0.87587994,0.87635 0 0 1 1.2233439,0 l 3.678526,3.64905 6.397066,-3.79695 a 0.77903192,0.77945 0 0 1 1.129894,0.3774 v 0 a 1.0253997,1.02595 0 0 1 -0.382295,1.2767 z M 21.339514,44.5 a 0.84954408,0.85 0 0 1 0,1.7 H 2.6495441 A 0.84954408,0.85 0 0 1 1.8,45.35 v -18.7 a 0.8495441,0.85 0 0 1 1.6990882,0 V 44.5 Z" style="fill:#b39700;fill-opacity:1;stroke-width:0.849772" /><path id="path4" d="m 21.730304,35.22565 -6.583967,3.9032 v 0 a 0.83340274,0.83385 0 0 1 -0.475745,0.22355 0.72975837,0.73015 0 0 1 -0.747598,-0.23885 l -3.627553,-3.5938 -3.6360488,3.6091 a 0.86483587,0.8653 0 0 1 -1.2148481,0 v 0 a 0.84954408,0.85 0 0 1 0,-1.2019 l 4.239225,-4.2075 a 0.87587994,0.87635 0 0 1 1.2233439,0 l 3.678526,3.64905 6.397066,-3.79695 a 0.77903192,0.77945 0 0 1 1.129894,0.3774 v 0 a 1.0253997,1.02595 0 0 1 -0.382295,1.2767 z M 21.339514,44.5 a 0.84954408,0.85 0 0 1 0,1.7 H 2.6495441 A 0.84954408,0.85 0 0 1 1.8,45.35 v -18.7 a 0.8495441,0.85 0 0 1 1.6990882,0 V 44.5 Z" style="fill:#b39700;fill-opacity:1;stroke-width:0.849772"/>

<path id="path5" d="m 21.730304,59.22565 -6.583967,3.9032 v 0 a 0.83340274,0.83385 0 0 1 -0.475745,0.22355 0.72975837,0.73015 0 0 1 -0.747598,-0.23885 l -3.627553,-3.5938 -3.6360488,3.6091 a 0.86483587,0.8653 0 0 1 -1.2148481,0 v 0 a 0.84954408,0.85 0 0 1 0,-1.2019 l 4.239225,-4.2075 a 0.87587994,0.87635 0 0 1 1.2233439,0 l 3.678526,3.64905 6.397066,-3.79695 a 0.77903192,0.77945 0 0 1 1.129894,0.3774 v 0 a 1.0253997,1.02595 0 0 1 -0.382295,1.2767 z M 21.339514,68.5 a 0.84954408,0.85 0 0 1 0,1.7 H 2.6495441 A 0.84954408,0.85 0 0 1 1.8,69.35 v -18.7 a 0.8495441,0.85 0 0 1 1.6990882,0 V 68.5 Z" style="fill:#000000;fill-opacity:1;stroke-width:0.849772" /><path id="path6" d="m 21.730304,59.22565 -6.583967,3.9032 v 0 a 0.83340274,0.83385 0 0 1 -0.475745,0.22355 0.72975837,0.73015 0 0 1 -0.747598,-0.23885 l -3.627553,-3.5938 -3.6360488,3.6091 a 0.86483587,0.8653 0 0 1 -1.2148481,0 v 0 a 0.84954408,0.85 0 0 1 0,-1.2019 l 4.239225,-4.2075 a 0.87587994,0.87635 0 0 1 1.2233439,0 l 3.678526,3.64905 6.397066,-3.79695 a 0.77903192,0.77945 0 0 1 1.129894,0.3774 v 0 a 1.0253997,1.02595 0 0 1 -0.382295,1.2767 z M 21.339514,68.5 a 0.84954408,0.85 0 0 1 0,1.7 H 2.6495441 A 0.84954408,0.85 0 0 1 1.8,69.35 v -18.7 a 0.8495441,0.85 0 0 1 1.6990882,0 V 68.5 Z" style="fill:#000000;fill-opacity:1;stroke-width:0.849772"/>
</svg>
