<?xml version="1.0" encoding="utf-8"?>
<svg width="200px" height="600px" viewBox="0 0 512 1536" xmlns="http://www.w3.org/2000/svg">
<path d="M 412.11269,207.74498 H 382.71931 V 52.664728 C 382.71931,44.786912 375.19085,38.4 365.90277,38.4 H 146.09723 c -9.28707,0 -16.81654,6.386912 -16.81654,14.264728 V 207.74498 H 99.887309 C 65.982661,207.74498 38.4,231.14213 38.4,259.90193 v 129.0345 c 0,7.87782 7.529467,14.26473 16.816545,14.26473 h 74.064145 v 56.13411 c 0,7.87782 7.52947,14.26473 16.81654,14.26473 h 219.80554 c 9.28707,0 16.81654,-6.38691 16.81654,-14.26473 v -56.13411 h 74.06414 c 9.28708,0 16.81655,-6.38691 16.81655,-14.26473 V 259.90278 c 10e-4,-28.76065 -27.58266,-52.1578 -61.48731,-52.1578 z M 162.91378,66.929456 H 349.08622 V 205.99993 H 162.91378 Z M 349.08622,445.07139 H 162.91378 c 0,-7.52421 0,-60.23961 0,-68.72348 h 186.17244 c 0,8.48387 0,61.19757 0,68.72348 z m 90.88069,-70.39968 h -51.31842 c 6.73083,-1.86321 11.59883,-7.22502 11.59883,-13.55668 0,-7.87782 -7.52947,-14.26473 -16.81655,-14.26473 H 131.11245 c -9.28708,0 -16.81654,6.38691 -16.81654,14.26473 0,6.33166 4.868,11.69262 11.59882,13.55668 H 72.03309 V 259.90278 c 0,-13.02797 12.495669,-23.62749 27.854219,-23.62749 H 412.11369 c 15.35855,0 27.85422,10.59952 27.85422,23.62749 v 114.76893 z" style="fill:#964b00;fill-opacity:1;stroke-width:0.922905" id="path1"/><path d="M 314.75069,396.44535 H 197.25031 c -9.28707,0 -16.81654,6.38691 -16.81654,14.26473 0,7.87781 7.52947,14.26473 16.81654,14.26473 h 117.50038 c 9.28708,0 16.81654,-6.38692 16.81654,-14.26473 0,-7.87782 -7.52846,-14.26473 -16.81654,-14.26473 z" style="fill:#964b00;fill-opacity:1;stroke-width:0.922905" id="path2"/>
     
<path d="M 412.11269,719.23298 H 382.71931 V 564.15273 c 0,-7.87782 -7.52846,-14.26473 -16.81654,-14.26473 H 146.09723 c -9.28707,0 -16.81654,6.38691 -16.81654,14.26473 V 719.23298 H 99.887309 C 65.982661,719.23298 38.4,742.63013 38.4,771.38993 v 129.0345 c 0,7.87782 7.529467,14.26473 16.816545,14.26473 h 74.064145 v 56.13411 c 0,7.87782 7.52947,14.26473 16.81654,14.26473 h 219.80554 c 9.28707,0 16.81654,-6.38691 16.81654,-14.26473 v -56.13411 h 74.06414 c 9.28708,0 16.81655,-6.38691 16.81655,-14.26473 V 771.39078 c 10e-4,-28.76065 -27.58266,-52.1578 -61.48731,-52.1578 z M 162.91378,578.41746 H 349.08622 V 717.48793 H 162.91378 Z M 349.08622,956.55939 H 162.91378 c 0,-7.52421 0,-60.23961 0,-68.72348 h 186.17244 c 0,8.48387 0,61.19757 0,68.72348 z m 90.88069,-70.39968 h -51.31842 c 6.73083,-1.86321 11.59883,-7.22502 11.59883,-13.55668 0,-7.87782 -7.52947,-14.26473 -16.81655,-14.26473 H 131.11245 c -9.28708,0 -16.81654,6.38691 -16.81654,14.26473 0,6.33166 4.868,11.69262 11.59882,13.55668 H 72.03309 V 771.39078 c 0,-13.02797 12.495669,-23.62749 27.854219,-23.62749 H 412.11369 c 15.35855,0 27.85422,10.59952 27.85422,23.62749 v 114.76893 z" style="fill:#b39700;fill-opacity:1;stroke-width:0.922905" id="path3"/><path d="M 314.75069,907.93335 H 197.25031 c -9.28707,0 -16.81654,6.38691 -16.81654,14.26473 0,7.87781 7.52947,14.26473 16.81654,14.26473 h 117.50038 c 9.28708,0 16.81654,-6.38692 16.81654,-14.26473 0,-7.87782 -7.52846,-14.26473 -16.81654,-14.26473 z" style="fill:#b39700;fill-opacity:1;stroke-width:0.922905" id="path4"/>

<path d="m 412.11269,1231.745 h -29.39338 v -155.0803 c 0,-7.8778 -7.52846,-14.2647 -16.81654,-14.2647 H 146.09723 c -9.28707,0 -16.81654,6.3869 -16.81654,14.2647 V 1231.745 H 99.887309 C 65.982661,1231.745 38.4,1255.1421 38.4,1283.9019 v 129.0345 c 0,7.8779 7.529467,14.2648 16.816545,14.2648 h 74.064145 v 56.1341 c 0,7.8778 7.52947,14.2647 16.81654,14.2647 h 219.80554 c 9.28707,0 16.81654,-6.3869 16.81654,-14.2647 v -56.1341 h 74.06414 c 9.28708,0 16.81655,-6.3869 16.81655,-14.2648 v -129.0336 c 10e-4,-28.7607 -27.58266,-52.1578 -61.48731,-52.1578 z M 162.91378,1090.9295 h 186.17244 v 139.0704 H 162.91378 Z m 186.17244,378.1419 H 162.91378 c 0,-7.5242 0,-60.2396 0,-68.7235 h 186.17244 c 0,8.4839 0,61.1976 0,68.7235 z m 90.88069,-70.3997 h -51.31842 c 6.73083,-1.8632 11.59883,-7.225 11.59883,-13.5567 0,-7.8778 -7.52947,-14.2647 -16.81655,-14.2647 H 131.11245 c -9.28708,0 -16.81654,6.3869 -16.81654,14.2647 0,6.3317 4.868,11.6927 11.59882,13.5567 H 72.03309 v -114.7689 c 0,-13.028 12.495669,-23.6275 27.854219,-23.6275 H 412.11369 c 15.35855,0 27.85422,10.5995 27.85422,23.6275 v 114.7689 z" style="fill:#000000;fill-opacity:1;stroke-width:0.922905" id="path5"/><path d="M 314.75069,1420.4454 H 197.25031 c -9.28707,0 -16.81654,6.3869 -16.81654,14.2647 0,7.8778 7.52947,14.2647 16.81654,14.2647 h 117.50038 c 9.28708,0 16.81654,-6.3869 16.81654,-14.2647 0,-7.8778 -7.52846,-14.2647 -16.81654,-14.2647 z" style="fill:#000000;fill-opacity:1;stroke-width:0.922905" id="path6" />
</svg>