<?xml version="1.0" encoding="UTF-8" standalone="no"?>
<svg
   width="200"
   height="600"
   viewBox="0 0 8 24"
   version="1.1"
   id="svg1"
   xmlns="http://www.w3.org/2000/svg"
   xmlns:svg="http://www.w3.org/2000/svg"
   xmlns:rdf="http://www.w3.org/1999/02/22-rdf-syntax-ns#"
   xmlns:cc="http://creativecommons.org/ns#"
   xmlns:dc="http://purl.org/dc/elements/1.1/">
  <defs
     id="defs1" />
  <title
     id="title1">sailboat</title>
  <path
     fill="#964b00"
     d="M 5.1954753,5.8657058 C 4.437177,5.877543 3.7140768,6.0271807 3.0407137,6.2923599 l 0.046675,-0.016058 C 2.1732471,6.6201045 2.146721,6.751145 1.3182803,6.6434948 0.8800847,6.5693762 0.48550363,6.4321403 0.12,6.2388212 l 0.0255047,0.012118 C 0.57808939,6.6358868 1.1109138,6.9024757 1.693985,6.9977259 l 0.0176,0.00227 C 2.3349562,6.9580114 2.9124164,6.7787782 3.4309571,6.4893636 l -0.025249,0.012681 c 0.564961,-0.2181169 1.216134,-0.3443662 1.8940881,-0.3443662 0.034947,0 0.06963,2.824e-4 0.1043199,0.00109 h -0.0051 C 6.2756642,6.2196314 7.0939021,6.3737847 7.880003,6.613601 L 7.7953211,6.5916256 C 7.338506,6.3506807 6.8033862,6.1427086 6.2460762,5.9978601 L 6.1909874,5.9857415 C 5.8984315,5.9096532 5.5625153,5.8659736 5.217417,5.8659736 c -0.00764,0 -0.015306,0 -0.022955,0 h 0.00123 z M 7.1757746,4.4296227 1.4639225,5.503303 c 0.2874541,0.1124405 0.4899731,0.4100275 0.4899731,0.7600313 0,0.011838 -2.549e-4,0.023675 -7.649e-4,0.035221 v -0.00173 c -0.00279,0.077777 -0.014796,0.1510483 -0.035202,0.2206544 l 0.00156,-0.00562 C 2.4974621,6.2184965 3.1733757,5.9713527 3.877091,5.8079051 l 0.063766,-0.0124 c 0.3769811,-0.094686 0.8098208,-0.1487934 1.2541381,-0.1487934 0.2639892,0 0.5241521,0.019163 0.7789586,0.056362 l -0.029839,-0.00363 C 6.1757109,5.1022958 6.616202,4.6452066 7.1612696,4.4344158 Z M 2.4530515,1.0132885 c 0,0 0.7669711,0.3753657 1.060037,1.9534795 0.060196,0.2423527 0.094882,0.5207769 0.094882,0.8079374 0,0.442154 -0.081876,0.8631718 -0.2300658,1.2455826 l 0.00715,-0.020569 C 3.8053972,4.5601006 4.3741848,4.2901304 5.0001064,4.2901304 c 0.2178226,0 0.4285037,0.032689 0.6287271,0.093842 l -0.016581,-0.00427 C 5.4944076,3.5737774 5.1847626,2.8641904 4.7371293,2.2893065 l 0.00436,0.00562 C 4.198717,1.5413856 3.3809891,1.0518882 2.4586862,1.0132803 l -0.0056,-2.814e-4 z m -0.566492,-0.012963 c 0.3956009,0.6253272 0.6519379,1.3876125 0.705756,2.211895 l 7.648e-4,0.01437 c 0.00842,0.1082131 0.013011,0.2338986 0.013011,0.3609931 0,0.5334592 -0.08315,1.0454998 -0.2361865,1.5209069 l 0.00892,-0.031844 C 2.6099145,4.7734229 2.9437902,4.5727772 3.3205165,4.5406516 l 0.00461,-2.822e-4 c 0.015816,-0.00145 0.031624,-0.00227 0.047185,-0.00281 0.02117,-0.1699289 0.033162,-0.366348 0.033162,-0.5658662 0,-0.647027 -0.1270208,-1.2613638 -0.354791,-1.813985 l 0.010206,0.027332 C 2.8402559,1.6217059 2.4191495,1.1933607 1.8998431,1.004269 L 1.8863221,1 Z"
     id="path1"
     style="stroke-width:0.2681" />
  <path
     fill="#b39700"
     d="M 5.1954753,13.865706 C 4.437177,13.877543 3.7140768,14.027181 3.0407137,14.29236 l 0.046675,-0.01606 C 2.1732471,14.620104 2.146721,14.751145 1.3182803,14.643495 0.8800847,14.569376 0.48550363,14.43214 0.12,14.238821 l 0.0255047,0.01212 c 0.43258469,0.384948 0.9654091,0.651537 1.5484803,0.746787 l 0.0176,0.0023 c 0.6233712,-0.04198 1.2008314,-0.221218 1.7193721,-0.510632 l -0.025249,0.01268 c 0.564961,-0.218117 1.216134,-0.344367 1.8940881,-0.344367 0.034947,0 0.06963,2.83e-4 0.1043199,0.0011 h -0.0051 c 0.8766481,0.06086 1.694886,0.215017 2.4809869,0.454833 l -0.084682,-0.02197 C 7.338506,14.350681 6.8033862,14.142709 6.2460762,13.99786 l -0.055089,-0.01212 C 5.8984315,13.909653 5.5625153,13.865974 5.217417,13.865974 c -0.00764,0 -0.015306,0 -0.022955,0 h 0.00123 z m 1.9802993,-1.436083 -5.7118521,1.07368 c 0.2874541,0.11244 0.4899731,0.410027 0.4899731,0.760031 0,0.01184 -2.549e-4,0.02367 -7.649e-4,0.03522 v -0.0017 c -0.00279,0.07778 -0.014796,0.151049 -0.035202,0.220655 l 0.00156,-0.0056 c 0.5779734,-0.293364 1.253887,-0.540507 1.9576023,-0.703955 l 0.063766,-0.0124 c 0.3769811,-0.09469 0.8098208,-0.148793 1.2541381,-0.148793 0.2639892,0 0.5241521,0.01916 0.7789586,0.05636 l -0.029839,-0.0036 C 6.1757109,13.102296 6.616202,12.645207 7.1612696,12.434416 Z M 2.4530515,9.0132885 c 0,0 0.7669711,0.3753657 1.060037,1.9534795 0.060196,0.242353 0.094882,0.520777 0.094882,0.807937 0,0.442154 -0.081876,0.863172 -0.2300658,1.245583 l 0.00715,-0.02057 c 0.4203425,-0.439618 0.9891301,-0.709589 1.6150517,-0.709589 0.2178226,0 0.4285037,0.03269 0.6287271,0.09384 l -0.016581,-0.0043 C 5.4944076,11.573777 5.1847626,10.86419 4.7371293,10.289306 l 0.00436,0.0056 C 4.198717,9.5413856 3.3809891,9.0518882 2.4586862,9.0132803 l -0.0056,-2.814e-4 z m -0.566492,-0.012963 c 0.3956009,0.6253272 0.6519379,1.3876125 0.705756,2.2118945 l 7.648e-4,0.01437 c 0.00842,0.108214 0.013011,0.233899 0.013011,0.360994 0,0.533459 -0.08315,1.045499 -0.2361865,1.520906 l 0.00892,-0.03184 c 0.2310897,-0.303223 0.5649654,-0.503869 0.9416917,-0.535994 l 0.00461,-2.83e-4 c 0.015816,-0.0015 0.031624,-0.0023 0.047185,-0.0028 0.02117,-0.169929 0.033162,-0.366348 0.033162,-0.565866 0,-0.647027 -0.1270208,-1.261364 -0.354791,-1.813985 l 0.010206,0.02733 C 2.8402559,9.6217059 2.4191495,9.1933607 1.8998431,9.004269 L 1.8863221,9 Z"
     id="path1-5"
     style="stroke-width:0.2681" />
  <path
     fill="#000000"
     d="M 5.1954753,21.865706 C 4.437177,21.877543 3.7140768,22.027181 3.0407137,22.29236 l 0.046675,-0.01606 C 2.1732471,22.620104 2.146721,22.751145 1.3182803,22.643495 0.8800847,22.569376 0.48550363,22.43214 0.12,22.238821 l 0.0255047,0.01212 c 0.43258469,0.384948 0.9654091,0.651537 1.5484803,0.746787 l 0.0176,0.0023 c 0.6233712,-0.04199 1.2008314,-0.221218 1.7193721,-0.510632 l -0.025249,0.01268 c 0.564961,-0.218117 1.216134,-0.344367 1.8940881,-0.344367 0.034947,0 0.06963,2.83e-4 0.1043199,0.0011 h -0.0051 c 0.8766481,0.06086 1.694886,0.215017 2.4809869,0.454833 l -0.084682,-0.02197 C 7.338506,22.350681 6.8033862,22.142709 6.2460762,21.99786 l -0.055089,-0.01212 C 5.8984315,21.909653 5.5625153,21.865974 5.217417,21.865974 c -0.00764,0 -0.015306,0 -0.022955,0 h 0.00123 z m 1.9802993,-1.436083 -5.7118521,1.07368 c 0.2874541,0.11244 0.4899731,0.410027 0.4899731,0.760031 0,0.01184 -2.549e-4,0.02368 -7.649e-4,0.03522 v -0.0017 c -0.00279,0.07778 -0.014796,0.151049 -0.035202,0.220655 l 0.00156,-0.0056 c 0.5779734,-0.293364 1.253887,-0.540507 1.9576023,-0.703955 l 0.063766,-0.0124 c 0.3769811,-0.09469 0.8098208,-0.148793 1.2541381,-0.148793 0.2639892,0 0.5241521,0.01916 0.7789586,0.05636 l -0.029839,-0.0036 C 6.1757109,21.102296 6.616202,20.645207 7.1612696,20.434416 Z M 2.4530515,17.013289 c 0,0 0.7669711,0.375365 1.060037,1.953479 0.060196,0.242353 0.094882,0.520777 0.094882,0.807937 0,0.442154 -0.081876,0.863172 -0.2300658,1.245583 l 0.00715,-0.02057 c 0.4203425,-0.439618 0.9891301,-0.709589 1.6150517,-0.709589 0.2178226,0 0.4285037,0.03269 0.6287271,0.09384 l -0.016581,-0.0043 C 5.4944076,19.573777 5.1847626,18.86419 4.7371293,18.289306 l 0.00436,0.0056 C 4.198717,17.541386 3.3809891,17.051888 2.4586862,17.01328 l -0.0056,-2.81e-4 z m -0.566492,-0.01296 c 0.3956009,0.625328 0.6519379,1.387613 0.705756,2.211895 l 7.648e-4,0.01437 c 0.00842,0.108214 0.013011,0.233899 0.013011,0.360994 0,0.533459 -0.08315,1.045499 -0.2361865,1.520906 l 0.00892,-0.03184 c 0.2310897,-0.303223 0.5649654,-0.503869 0.9416917,-0.535994 l 0.00461,-2.83e-4 c 0.015816,-0.0014 0.031624,-0.0023 0.047185,-0.0028 0.02117,-0.169929 0.033162,-0.366348 0.033162,-0.565866 0,-0.647027 -0.1270208,-1.261364 -0.354791,-1.813985 l 0.010206,0.02733 C 2.8402559,17.621706 2.4191495,17.193361 1.8998431,17.004269 L 1.8863221,17 Z"
     id="path1-2"
     style="stroke-width:0.2681" />
  <metadata
     id="metadata1">
    <rdf:RDF>
      <cc:Work
         rdf:about="">
        <dc:title>sailboat</dc:title>
      </cc:Work>
    </rdf:RDF>
  </metadata>
</svg>
