<?xml version="1.0" encoding="UTF-8" standalone="no"?>
<!-- Uploaded to: SVG Repo, www.svgrepo.com, Generator: SVG Repo Mixer Tools -->

<svg
   width="200"
   height="600"
   viewBox="0 0 6 18"
   fill="none"
   xmlns="http://www.w3.org/2000/svg"
   xmlns:svg="http://www.w3.org/2000/svg">
  <path
     d="M 2.052002,2.5560463 3.0599999,0.79197892 4.0679978,2.5560463 Z"
     stroke="#964b00"
     stroke-width="0.5"
     stroke-linecap="round"
     stroke-linejoin="round"
     id="path1" />
  <path
     d="m 2.556001,4.4461184 c 0,0.4871346 -0.3948832,0.8820337 -0.8819983,0.8820337 -0.487115,0 -0.8819982,-0.3948991 -0.8819982,-0.8820337 0,-0.4871346 0.3948832,-0.8820337 0.8819982,-0.8820337 0.4871151,0 0.8819983,0.3948991 0.8819983,0.8820337 z"
     stroke="#964b00"
     stroke-width="0.5"
     stroke-linecap="round"
     stroke-linejoin="round"
     id="path2" />
  <path
     d="M 3.5639988,3.5640847 H 5.3279953 V 5.3281521 H 3.5639988 Z"
     stroke="#964b00"
     stroke-width="0.5"
     stroke-linecap="round"
     stroke-linejoin="round"
     id="path3" />
  <path
     d="M 2.052002,8.5560463 3.0599999,6.7919789 4.0679978,8.5560463 Z"
     stroke="#b39700"
     stroke-width="0.5"
     stroke-linecap="round"
     stroke-linejoin="round"
     id="path4" />
  <path
     d="m 2.556001,10.446118 c 0,0.487135 -0.3948832,0.882034 -0.8819983,0.882034 -0.487115,0 -0.8819982,-0.394899 -0.8819982,-0.882034 0,-0.4871342 0.3948832,-0.8820333 0.8819982,-0.8820333 0.4871151,0 0.8819983,0.3948991 0.8819983,0.8820333 z"
     stroke="#b39700"
     stroke-width="0.5"
     stroke-linecap="round"
     stroke-linejoin="round"
     id="path5" />
  <path
     d="M 3.5639988,9.5640847 H 5.3279953 V 11.328152 H 3.5639988 Z"
     stroke="#b39700"
     stroke-width="0.5"
     stroke-linecap="round"
     stroke-linejoin="round"
     id="path6" />
  <path
     d="m 2.052002,14.556046 1.0079979,-1.764067 1.0079979,1.764067 z"
     stroke="#000000"
     stroke-width="0.5"
     stroke-linecap="round"
     stroke-linejoin="round"
     id="path7" />
  <path
     d="m 2.556001,16.446118 c 0,0.487135 -0.3948832,0.882034 -0.8819983,0.882034 -0.487115,0 -0.8819982,-0.394899 -0.8819982,-0.882034 0,-0.487134 0.3948832,-0.882033 0.8819982,-0.882033 0.4871151,0 0.8819983,0.394899 0.8819983,0.882033 z"
     stroke="#000000"
     stroke-width="0.5"
     stroke-linecap="round"
     stroke-linejoin="round"
     id="path8" />
  <path
     d="m 3.5639988,15.564085 h 1.7639965 v 1.764067 H 3.5639988 Z"
     stroke="#000000"
     stroke-width="0.5"
     stroke-linecap="round"
     stroke-linejoin="round"
     id="path9" />
</svg>
