<?xml version="1.0" encoding="utf-8"?><!-- Uploaded to: SVG Repo, www.svgrepo.com, Generator: SVG Repo Mixer Tools -->
<svg width="200px" height="600px" viewBox="0 0 24 72" fill="none" xmlns="http://www.w3.org/2000/svg">
  <path d="M 12,20 C 9.47362,20 7.22075,18.8289 5.75463,17 M 12,4 c 2.9611,0 5.5465,1.60879 6.9297,4 M 4,12 C 4,9.47362 5.17107,7.22075 7,5.75463 M 20,12 c 0,2.8339 -1.4735,5.3236 -3.6961,6.7448 M 19.3,5 v 3 h -3 M 8,16.3 H 5 v 3 M 16.3,16 v 3 h 3 M 4.7002,5 h 3 v 3"
     stroke="#964b00"
     stroke-width="2"
     stroke-linecap="round"
     stroke-linejoin="round"
     id="path1"/>
  <path d="M 12,44 C 9.47362,44 7.22075,42.8289 5.75463,41 M 12,28 c 2.9611,0 5.5465,1.60879 6.9297,4 M 4,36 C 4,33.47362 5.17107,31.22075 7,29.75463 M 20,36 c 0,2.8339 -1.4735,5.3236 -3.6961,6.7448 M 19.3,29 v 3 h -3 M 8,40.3 H 5 v 3 M 16.3,40 v 3 h 3 M 4.7002,29 h 3 v 3"
     stroke="#b39700"
     stroke-width="2"
     stroke-linecap="round"
     stroke-linejoin="round"
     id="path2"/>
  <path d="M 12,68 C 9.47362,68 7.22075,66.8289 5.75463,65 M 12,52 c 2.9611,0 5.5465,1.60879 6.9297,4 M 4,60 C 4,57.47362 5.17107,55.22075 7,53.75463 M 20,60 c 0,2.8339 -1.4735,5.3236 -3.6961,6.7448 M 19.3,53 v 3 h -3 M 8,64.3 H 5 v 3 M 16.3,64 v 3 h 3 M 4.7002,53 h 3 v 3"
     stroke="#000000"
     stroke-width="2"
     stroke-linecap="round"
     stroke-linejoin="round"
     id="path3"/>
</svg>