<?xml version="1.0" encoding="UTF-8"?>
<svg
   width="200px"
   height="600px"
   viewBox="0 0 6 18"
   fill="none"
   xmlns="http://www.w3.org/2000/svg">
  <path
     d="m 4.6153326,4.5006273 c 0,0.2762118 -0.2224784,0.5001119 -0.4969366,0.5001119 -0.2744579,0 -0.4969363,-0.2239001 -0.4969363,-0.5001119 m 0.9938729,0 c 0,-0.2762115 -0.2224784,-0.5001116 -0.4969366,-0.5001116 -0.2744579,0 -0.4969363,0.2239001 -0.4969363,0.5001116 m 0.9938729,0 h 0.7454047 m -1.7392776,0 H 3.3729913 m -1.2423412,0 c 0,0.2762118 -0.2224859,0.5001119 -0.4969366,0.5001119 -0.2744505,0 -0.4969364,-0.2239001 -0.4969364,-0.5001119 m 0.993873,0 c 0,-0.2762115 -0.2224859,-0.5001116 -0.4969366,-0.5001116 -0.2744505,0 -0.4969364,0.2239001 -0.4969364,0.5001116 m 0.993873,0 h 1.2423412 m -2.2362142,0 c -0.27445069,0 -0.49693659,-0.2238999 -0.49693659,-0.5001116 V 1.8000239 c 0,-0.2800875 0,-0.4201338 0.054164,-0.5271127 0.047642,-0.094104 0.1236627,-0.1706107 0.2171687,-0.2185563 0.10629929,-0.05451 0.24545649,-0.05451 0.52376579,-0.05451 h 1.1429539 c 0.2783093,0 0.4174764,0 0.5237713,0.054509 0.093498,0.047946 0.1695298,0.1244528 0.217161,0.2185563 0.054166,0.1069786 0.054166,0.2470253 0.054166,0.5271128 v 2.7006037 m 0,0 V 2.0000683 h 0.993873 l 0.7454043,1.0002236 m 0,0 V 4.500627 m 0,-1.5003351 H 3.3729913"
     stroke="#964b00"
     stroke-width="0.40"
     stroke-linecap="round"
     stroke-linejoin="round"
     id="path1"
     style="stroke-width:0.3;stroke-dasharray:none" />
  <path
     d="m 4.6153326,10.500627 c 0,0.276212 -0.2224784,0.500112 -0.4969366,0.500112 -0.2744579,0 -0.4969363,-0.2239 -0.4969363,-0.500112 m 0.9938729,0 c 0,-0.276211 -0.2224784,-0.500111 -0.4969366,-0.500111 -0.2744579,0 -0.4969363,0.2239 -0.4969363,0.500111 m 0.9938729,0 h 0.7454047 m -1.7392776,0 H 3.3729913 m -1.2423412,0 c 0,0.276212 -0.2224859,0.500112 -0.4969366,0.500112 -0.2744505,0 -0.4969364,-0.2239 -0.4969364,-0.500112 m 0.993873,0 c 0,-0.276211 -0.2224859,-0.500111 -0.4969366,-0.500111 -0.2744505,0 -0.4969364,0.2239 -0.4969364,0.500111 m 0.993873,0 h 1.2423412 m -2.2362142,0 c -0.27445069,0 -0.49693659,-0.2239 -0.49693659,-0.500111 V 7.8000239 c 0,-0.2800875 0,-0.4201338 0.054164,-0.5271127 0.047642,-0.094104 0.1236627,-0.1706107 0.2171687,-0.2185563 0.10629929,-0.05451 0.24545649,-0.05451 0.52376579,-0.05451 h 1.1429539 c 0.2783093,0 0.4174764,0 0.5237713,0.054509 0.093498,0.047946 0.1695298,0.1244528 0.217161,0.2185563 0.054166,0.1069786 0.054166,0.2470253 0.054166,0.5271128 v 2.700604 m 0,0 V 8.0000683 h 0.993873 l 0.7454043,1.0002236 m 0,0 v 1.5003351 m 0,-1.5003351 H 3.3729913"
     stroke="#b39700"
     stroke-width="0.40"
     stroke-linecap="round"
     stroke-linejoin="round"
     id="path2"
     style="stroke-width:0.3;stroke-dasharray:none" />
  <path
     d="m 4.6153326,16.500627 c 0,0.276212 -0.2224784,0.500112 -0.4969366,0.500112 -0.2744579,0 -0.4969363,-0.2239 -0.4969363,-0.500112 m 0.9938729,0 c 0,-0.276211 -0.2224784,-0.500111 -0.4969366,-0.500111 -0.2744579,0 -0.4969363,0.2239 -0.4969363,0.500111 m 0.9938729,0 h 0.7454047 m -1.7392776,0 H 3.3729913 m -1.2423412,0 c 0,0.276212 -0.2224859,0.500112 -0.4969366,0.500112 -0.2744505,0 -0.4969364,-0.2239 -0.4969364,-0.500112 m 0.993873,0 c 0,-0.276211 -0.2224859,-0.500111 -0.4969366,-0.500111 -0.2744505,0 -0.4969364,0.2239 -0.4969364,0.500111 m 0.993873,0 h 1.2423412 m -2.2362142,0 c -0.27445069,0 -0.49693659,-0.2239 -0.49693659,-0.500111 v -2.200492 c 0,-0.280088 0,-0.420134 0.054164,-0.527113 0.047642,-0.0941 0.1236627,-0.17061 0.2171687,-0.218556 0.10629929,-0.05451 0.24545649,-0.05451 0.52376579,-0.05451 h 1.1429539 c 0.2783093,0 0.4174764,0 0.5237713,0.05451 0.093498,0.04795 0.1695298,0.124453 0.217161,0.218556 0.054166,0.106979 0.054166,0.247026 0.054166,0.527113 v 2.700604 m 0,0 v -2.500559 h 0.993873 l 0.7454043,1.000224 m 0,0 v 1.500335 m 0,-1.500335 H 3.3729913"
     stroke="#000000"
     stroke-width="0.40"
     stroke-linecap="round"
     stroke-linejoin="round"
     id="path3"
     style="stroke-width:0.3;stroke-dasharray:none" />
</svg>
