<?xml version="1.0" encoding="UTF-8" standalone="no"?>
<svg
   height="600"
   width="200"
   viewBox="0 0 128 384"
   xmlns="http://www.w3.org/2000/svg"
   xmlns:svg="http://www.w3.org/2000/svg">
  <path
     d="M 123.18627,83.944586 102.34711,45.067662 C 100.1539,19.864211 79.039806,0 53.190442,0 25.724698,0 3.84,22.346956 3.84,49.407154 c 0,33.358433 32.873992,58.015636 65.510258,46.693406 h 8.126854 v 24.4232 c 0,4.1225 3.350127,7.47624 7.467866,7.47624 h 15.083562 c 4.11774,0 7.46762,-3.35374 7.46762,-7.47624 v -24.4232 h 8.42626 c 2.88291,0 5.59377,-1.53875 7.07456,-4.01624 1.4798,-2.47725 1.55246,-5.595739 0.18929,-8.139734 z M 35.59129,12.260226 c -1.874833,3.140994 -3.358367,6.542236 -4.543496,10.01973 -2.293599,-0.677999 -4.458596,-1.462747 -6.459034,-2.350995 3.207542,-3.120244 6.91975,-5.721989 11.00253,-7.668735 z M 19.102603,26.495447 c 2.947843,1.468748 6.223305,2.730245 9.746731,3.762494 -1.024565,4.732241 -1.663825,9.786982 -1.887817,15.004471 h -14.63433 c 0.6927,-6.897237 3.095172,-13.296725 6.775416,-18.766965 z m -6.775416,27.056198 h 14.630336 c 0.217497,5.18599 0.845772,10.21123 1.854355,14.920721 -3.527672,1.035748 -6.80663,2.301247 -9.756221,3.774993 C 15.402132,66.79312 13.01689,60.419132 12.327187,53.551645 Z m 12.194901,25.268701 c 2.002434,-0.893249 4.170677,-1.682247 6.468272,-2.363995 1.180136,3.494993 2.65468,6.902487 4.525766,10.06273 -4.081531,-1.956496 -7.790992,-4.568741 -10.994038,-7.698735 z m 24.52864,10.528484 c -3.739176,-2.2585 -7.344009,-7.43899 -9.945001,-14.751226 3.18257,-0.535999 6.515966,-0.892498 9.945001,-1.050498 z m 0,-24.098208 c -4.19465,0.1795 -8.283922,0.632749 -12.182913,1.334748 -0.843027,-3.975993 -1.412868,-8.345734 -1.624373,-13.033725 h 13.807536 v 11.698977 z m 0,-19.98821 H 35.247187 c 0.218248,-4.723991 0.799826,-9.123733 1.658584,-13.121475 3.887755,0.698749 7.964291,1.149498 12.144957,1.328498 z m 0,-20.089461 c -3.406062,-0.15725 -6.718481,-0.509748 -9.883073,-1.039999 2.596498,-7.219734 6.173363,-12.334725 9.883073,-14.574971 z m 42.625722,9.878231 c -2.37501,0.258249 -4.576464,1.669995 -5.769334,3.897242 l -3.384587,6.314238 H 79.419117 C 79.195376,40.044922 78.555866,34.990433 77.5313,30.258191 c 3.51943,-1.031249 6.791897,-2.290746 9.737491,-3.757744 1.784439,2.646995 3.271469,5.51224 4.407659,8.550735 z M 81.775893,19.935961 c -1.996192,0.885498 -4.155695,1.667746 -6.443302,2.344495 -1.185379,-3.478493 -2.664668,-6.867486 -4.530012,-9.99698 4.063802,1.944246 7.76802,4.539742 10.973314,7.652485 z M 57.330156,9.557731 c 3.709461,2.240497 7.286326,7.355487 9.882573,14.574971 -3.16434,0.53025 -6.476761,0.882749 -9.882573,1.040249 z m 0,35.704932 V 33.469435 c 4.180417,-0.179 8.256704,-0.629999 12.144709,-1.328248 0.858757,3.997742 1.440335,8.397734 1.658582,13.121476 z m 0,8.288982 h 13.803791 c -0.208011,4.515492 -0.758873,8.905982 -1.632363,13.026975 -3.922715,-0.708249 -7.99201,-1.153997 -12.171428,-1.329997 z m 3.647783,32.633438 C 59.975847,87.34408 58.740775,88.51533 57.329657,89.36383 V 73.549106 c 3.255486,0.15 6.432312,0.474499 9.504761,0.978498 -5.287887,9.866231 -5.537099,10.096981 -5.856479,11.657479 z m 42.378501,1.626247 c -2.28635,0 -4.13971,1.85575 -4.13971,4.14449 v 27.75471 H 85.75679 V 91.95582 c 0,-2.289 -1.853607,-4.14449 -4.139714,-4.14449 H 69.111285 L 92.48701,44.202414 c 0.0172,0.032 23.37572,43.608916 23.37572,43.608916 z"
     id="path1"
     style="fill:#964b00;fill-opacity:1;stroke-width:0.18667" />
  <path
     d="M 123.18627,211.94459 102.34711,173.06766 C 100.1539,147.86421 79.039806,128 53.190442,128 25.724698,128 3.84,150.34696 3.84,177.40715 c 0,33.35844 32.873992,58.01564 65.510258,46.69341 h 8.126854 v 24.4232 c 0,4.1225 3.350127,7.47624 7.467866,7.47624 h 15.083562 c 4.11774,0 7.46762,-3.35374 7.46762,-7.47624 v -24.4232 h 8.42626 c 2.88291,0 5.59377,-1.53875 7.07456,-4.01623 1.4798,-2.47726 1.55246,-5.59576 0.18929,-8.13974 z M 35.59129,140.26022 c -1.874833,3.141 -3.358367,6.54224 -4.543496,10.01973 -2.293599,-0.67799 -4.458596,-1.46274 -6.459034,-2.35099 3.207542,-3.12025 6.91975,-5.72198 11.00253,-7.66874 z m -16.488687,14.23523 c 2.947843,1.46875 6.223305,2.73024 9.746731,3.76249 -1.024565,4.73225 -1.663825,9.78698 -1.887817,15.00447 h -14.63433 c 0.6927,-6.89724 3.095172,-13.29672 6.775416,-18.76696 z m -6.775416,27.0562 h 14.630336 c 0.217497,5.18599 0.845772,10.21122 1.854355,14.92071 -3.527672,1.03575 -6.80663,2.30125 -9.756221,3.775 -3.653525,-5.45424 -6.038767,-11.82822 -6.72847,-18.69571 z m 12.194901,25.2687 c 2.002434,-0.89325 4.170677,-1.68225 6.468272,-2.364 1.180136,3.49499 2.65468,6.90249 4.525766,10.06273 -4.081531,-1.95649 -7.790992,-4.56874 -10.994038,-7.69873 z m 24.52864,10.52847 c -3.739176,-2.2585 -7.344009,-7.43898 -9.945001,-14.75122 3.18257,-0.536 6.515966,-0.8925 9.945001,-1.0505 z m 0,-24.0982 c -4.19465,0.1795 -8.283922,0.63275 -12.182913,1.33475 -0.843027,-3.976 -1.412868,-8.34573 -1.624373,-13.03372 h 13.807536 v 11.69897 z m 0,-19.98821 H 35.247187 c 0.218248,-4.72399 0.799826,-9.12374 1.658584,-13.12147 3.887755,0.69875 7.964291,1.1495 12.144957,1.3285 z m 0,-20.08946 c -3.406062,-0.15725 -6.718481,-0.50975 -9.883073,-1.04 2.596498,-7.21974 6.173363,-12.33473 9.883073,-14.57498 z m 42.625722,9.87824 c -2.37501,0.25825 -4.576464,1.66998 -5.769334,3.89723 l -3.384587,6.31424 h -3.103412 c -0.223741,-5.21774 -0.863251,-10.27222 -1.887817,-15.00447 3.51943,-1.03125 6.791897,-2.29074 9.737491,-3.75774 1.784439,2.64699 3.271469,5.51224 4.407659,8.55074 z m -9.900557,-15.11523 c -1.996192,0.8855 -4.155695,1.66775 -6.443302,2.34449 -1.185379,-3.47849 -2.664668,-6.86748 -4.530012,-9.99698 4.063802,1.94425 7.76802,4.53974 10.973314,7.65249 z M 57.330156,137.55774 c 3.709461,2.24048 7.286326,7.35547 9.882573,14.57496 -3.16434,0.53025 -6.476761,0.88275 -9.882573,1.04025 z m 0,35.70492 v -11.79322 c 4.180417,-0.179 8.256704,-0.63 12.144709,-1.32825 0.858757,3.99773 1.440335,8.39773 1.658582,13.12147 z m 0,8.28899 h 13.803791 c -0.208011,4.51549 -0.758873,8.90597 -1.632363,13.02697 -3.922715,-0.70825 -7.99201,-1.154 -12.171428,-1.33 z m 3.647783,32.63344 c -1.002092,1.15898 -2.237164,2.33023 -3.648282,3.17873 V 201.5491 c 3.255486,0.15 6.432312,0.4745 9.504761,0.9785 -5.287887,9.86624 -5.537099,10.09699 -5.856479,11.65749 z m 42.378501,1.62623 c -2.28635,0 -4.13971,1.85575 -4.13971,4.1445 v 27.7547 H 85.75679 v -27.7547 c 0,-2.289 -1.853607,-4.1445 -4.139714,-4.1445 H 69.111285 L 92.48701,172.20241 c 0.0172,0.032 23.37572,43.60891 23.37572,43.60891 z"
     id="path1-5"
     style="fill:#b39700;fill-opacity:1;stroke-width:0.18667" />
  <path
     d="M 123.18627,339.94459 102.34711,301.06766 C 100.1539,275.86421 79.039806,256 53.190442,256 25.724698,256 3.84,278.34696 3.84,305.40715 c 0,33.35844 32.873992,58.01564 65.510258,46.69341 h 8.126854 v 24.4232 c 0,4.1225 3.350127,7.47624 7.467866,7.47624 h 15.083562 c 4.11774,0 7.46762,-3.35374 7.46762,-7.47624 v -24.4232 h 8.42626 c 2.88291,0 5.59377,-1.53875 7.07456,-4.01624 1.4798,-2.47725 1.55246,-5.59575 0.18929,-8.13973 z M 35.59129,268.26022 c -1.874833,3.14101 -3.358367,6.54224 -4.543496,10.01973 -2.293599,-0.67799 -4.458596,-1.46274 -6.459034,-2.35099 3.207542,-3.12025 6.91975,-5.72199 11.00253,-7.66874 z m -16.488687,14.23523 c 2.947843,1.46875 6.223305,2.73024 9.746731,3.76249 -1.024565,4.73225 -1.663825,9.78698 -1.887817,15.00447 h -14.63433 c 0.6927,-6.89724 3.095172,-13.29672 6.775416,-18.76696 z m -6.775416,27.0562 h 14.630336 c 0.217497,5.18599 0.845772,10.21122 1.854355,14.92071 -3.527672,1.03575 -6.80663,2.30125 -9.756221,3.775 -3.653525,-5.45424 -6.038767,-11.82822 -6.72847,-18.69571 z m 12.194901,25.2687 c 2.002434,-0.89325 4.170677,-1.68225 6.468272,-2.364 1.180136,3.49499 2.65468,6.90249 4.525766,10.06272 -4.081531,-1.95648 -7.790992,-4.56873 -10.994038,-7.69872 z m 24.52864,10.52847 c -3.739176,-2.2585 -7.344009,-7.43898 -9.945001,-14.75122 3.18257,-0.536 6.515966,-0.89249 9.945001,-1.05049 z m 0,-24.0982 c -4.19465,0.1795 -8.283922,0.63275 -12.182913,1.33475 -0.843027,-3.976 -1.412868,-8.34573 -1.624373,-13.03372 h 13.807536 v 11.69897 z m 0,-19.98821 H 35.247187 c 0.218248,-4.72399 0.799826,-9.12374 1.658584,-13.12147 3.887755,0.69875 7.964291,1.1495 12.144957,1.3285 z m 0,-20.08946 c -3.406062,-0.15725 -6.718481,-0.50975 -9.883073,-1.04 2.596498,-7.21974 6.173363,-12.33473 9.883073,-14.57496 z m 42.625721,9.87824 c -2.37501,0.25825 -4.576463,1.66998 -5.769333,3.89723 l -3.384587,6.31424 h -3.103412 c -0.223741,-5.21774 -0.863251,-10.27222 -1.887817,-15.00447 3.51943,-1.03125 6.791897,-2.29074 9.737491,-3.75774 1.784437,2.64699 3.271467,5.51224 4.407658,8.55074 z m -9.900556,-15.11523 c -1.996192,0.8855 -4.155695,1.66775 -6.443302,2.34449 -1.185379,-3.47849 -2.664668,-6.86748 -4.530012,-9.99698 4.063802,1.94425 7.76802,4.53974 10.973314,7.65249 z M 57.330156,265.55774 c 3.709461,2.24048 7.286326,7.35547 9.882573,14.57496 -3.16434,0.53025 -6.476761,0.88275 -9.882573,1.04025 z m 0,35.70492 v -11.79322 c 4.180417,-0.179 8.256704,-0.63 12.144709,-1.32825 0.858757,3.99774 1.440335,8.39774 1.658582,13.12147 z m 0,8.28899 h 13.803791 c -0.208011,4.51549 -0.758873,8.90597 -1.632363,13.02697 -3.922715,-0.70825 -7.99201,-1.154 -12.171428,-1.33 z m 3.647783,32.63344 c -1.002092,1.15898 -2.237164,2.33023 -3.648282,3.17873 V 329.5491 c 3.255486,0.15 6.432312,0.4745 9.504761,0.9785 -5.287887,9.86624 -5.537099,10.09699 -5.856479,11.65749 z m 42.378501,1.62623 c -2.28635,0 -4.139712,1.85575 -4.139712,4.1445 v 27.7547 H 85.75679 v -27.7547 c 0,-2.289 -1.853607,-4.1445 -4.139714,-4.1445 H 69.111285 l 23.375723,-43.60891 c 0.0172,0.032 23.375722,43.60891 23.375722,43.60891 z"
     id="path1-2"
     style="fill:#000000;fill-opacity:1;stroke-width:0.18667" />
</svg>
