<?xml version="1.0" encoding="UTF-8" standalone="no"?>
<svg
   width="200"
   height="600"
   viewBox="0 0 6 18"
   fill="none"
   xmlns="http://www.w3.org/2000/svg"
   xmlns:svg="http://www.w3.org/2000/svg">
  <path
     style="color:#000000;fill:#964b00;stroke-width:1.0;stroke-linecap:round;stroke-linejoin:round;-inkscape-stroke:none"
     d="M 4.493984,5.8664407 A 0.24740716,0.24739832 0 0 1 4.2459736,5.6184391 V 4.7377405 L 3.9178969,5.0599474 a 0.24740716,0.24739832 0 0 1 -0.3495581,-0.00391 0.24740716,0.24739832 0 0 1 0.00195,-0.3495456 l 0.7440313,-0.7283819 0.00195,-0.00195 a 0.24740716,0.24739832 0 0 1 0,-0.00195 0.24740716,0.24739832 0 0 1 0.00195,0 0.24740716,0.24739832 0 0 1 0.00195,-0.00195 0.24740716,0.24739832 0 0 1 0.099607,-0.041014 0.24740716,0.24739832 0 0 1 0.072255,-0.031244 0.24740716,0.24739832 0 0 1 0.00195,0 0.24740716,0.24739832 0 0 1 0.00195,0 0.24740716,0.24739832 0 0 1 0.072255,0.031244 0.24740716,0.24739832 0 0 1 0.097642,0.041008 l 0.00391,0.00391 a 0.24740716,0.24739832 0 0 1 0.00195,0.00195 l 0.7440345,0.7283823 a 0.24740716,0.24739832 0 0 1 0.00391,0.3495456 0.24740716,0.24739832 0 0 1 -0.3515109,0.00391 L 4.7400417,4.7377405 V 5.6184391 A 0.24740716,0.24739832 0 0 1 4.493984,5.8664407 Z"
     id="path2" />
  <path
     style="color:#000000;fill:#964b00;stroke-width:1.0;stroke-linecap:round;stroke-linejoin:round;-inkscape-stroke:none"
     d="m 2.1974464,0.30029744 c -0.4194572,0 -0.662775,-0.0114289 -0.9002584,0.10740226 C 1.1100647,0.5013327 0.95585851,0.65012086 0.85975228,0.83535592 0.73747162,1.071035 0.75039334,1.3138898 0.75039334,1.7258183 V 4.274181 c 0,0.4119382 -0.0129073,0.6547853 0.10935894,0.8904624 C 0.95586026,5.3498872 1.1100671,5.4986753 1.297188,5.5922997 1.53467,5.7111391 1.7780142,5.699702 2.1974464,5.699702 H 3.1211389 A 0.24740716,0.24739832 0 0 0 3.3671964,5.4517004 0.24740716,0.24739832 0 0 0 3.1211389,5.2036988 H 2.1974464 c -0.4194322,0 -0.5966499,-0.011222 -0.6795877,-0.052724 C 1.4231263,5.1035755 1.3466417,5.0277252 1.2991408,4.9361695 1.2581433,4.8571437 1.2464142,4.6861192 1.2464142,4.274181 V 1.7258183 c 0,-0.4119285 0.011743,-0.582999 0.052726,-0.6619885 0.047504,-0.091559 0.1239879,-0.16740328 0.2187179,-0.21480448 0.082937,-0.041499 0.2601305,-0.052724 0.6795877,-0.052724 h 1.5974216 c 0.4194671,0 0.5946622,0.011211 0.6776348,0.052724 0.094727,0.047398 0.1712159,0.1232424 0.2187179,0.21480448 0.040985,0.078988 0.054679,0.2500599 0.054679,0.6619885 V 3.1220477 A 0.24740716,0.24739832 0 0 0 4.9919578,3.3700493 0.24740716,0.24739832 0 0 0 5.2399682,3.1220477 V 1.7258183 c 0,-0.4119286 0.01293,-0.6547816 -0.1093589,-0.89046238 C 5.0345115,0.65012353 4.8822581,0.50133415 4.6951264,0.4076997 4.4576441,0.2888804 4.2143351,0.30029744 3.794868,0.30029744 Z"
     id="path1" />
  <line
     x1="1.8502318"
     y1="1.3704926"
     x2="4.2598782"
     y2="1.3704926"
     stroke="#964b00"
     stroke-width="0.3"
     stroke-linecap="round"
     id="line16" />
  <line
     x1="1.8502318"
     y1="2.0163746"
     x2="4.2598782"
     y2="2.0163746"
     stroke="#964b00"
     stroke-width="0.3"
     stroke-linecap="round"
     id="line17" />
  <line
     x1="1.8502318"
     y1="2.6622567"
     x2="4.2598782"
     y2="2.6622567"
     stroke="#964b00"
     stroke-width="0.3"
     stroke-linecap="round"
     id="line18" />
  <line
     x1="1.8502318"
     y1="3.3081388"
     x2="4.2598782"
     y2="3.3081388"
     stroke="#964b00"
     stroke-width="0.3"
     stroke-linecap="round"
     id="line19" />
  <line
     x1="1.8502318"
     y1="3.9540212"
     x2="3.7499528"
     y2="3.9540212"
     stroke="#964b00"
     stroke-width="0.3"
     stroke-linecap="round"
     id="line20" />
  <line
     x1="1.8502318"
     y1="4.5999026"
     x2="3.0000629"
     y2="4.5999026"
     stroke="#964b00"
     stroke-width="0.3"
     stroke-linecap="round"
     id="line21" />
  <path
     style="color:#000000;fill:#b39700;stroke-width:1.0;stroke-linecap:round;stroke-linejoin:round;-inkscape-stroke:none"
     d="M 4.493984,11.866441 A 0.24740716,0.24739832 0 0 1 4.2459736,11.618439 v -0.880698 l -0.3280767,0.322206 a 0.24740716,0.24739832 0 0 1 -0.3495581,-0.0039 0.24740716,0.24739832 0 0 1 0.00195,-0.349545 l 0.7440313,-0.7283821 0.00195,-0.00195 a 0.24740716,0.24739832 0 0 1 0,-0.00195 0.24740716,0.24739832 0 0 1 0.00195,0 0.24740716,0.24739832 0 0 1 0.00195,-0.00195 0.24740716,0.24739832 0 0 1 0.099607,-0.041014 0.24740716,0.24739832 0 0 1 0.072255,-0.031244 0.24740716,0.24739832 0 0 1 0.00195,0 0.24740716,0.24739832 0 0 1 0.00195,0 0.24740716,0.24739832 0 0 1 0.072255,0.031244 0.24740716,0.24739832 0 0 1 0.097642,0.041008 l 0.00391,0.00391 a 0.24740716,0.24739832 0 0 1 0.00195,0.00195 l 0.7440345,0.7283821 a 0.24740716,0.24739832 0 0 1 0.00391,0.349546 0.24740716,0.24739832 0 0 1 -0.3515109,0.0039 l -0.328081,-0.322211 v 0.880698 A 0.24740716,0.24739832 0 0 1 4.493984,11.866441 Z"
     id="path2-5" />
  <path
     style="color:#000000;fill:#b39700;stroke-width:1.0;stroke-linecap:round;stroke-linejoin:round;-inkscape-stroke:none"
     d="m 2.1974464,6.3002974 c -0.4194572,0 -0.662775,-0.011429 -0.9002584,0.1074023 C 1.1100647,6.5013327 0.95585851,6.6501209 0.85975228,6.8353559 0.73747162,7.071035 0.75039334,7.3138898 0.75039334,7.7258183 v 2.5483627 c 0,0.411938 -0.0129073,0.654785 0.10935894,0.890462 0.096108,0.185244 0.25031482,0.334032 0.43743572,0.427657 0.237482,0.118839 0.4808262,0.107402 0.9002584,0.107402 H 3.1211389 A 0.24740716,0.24739832 0 0 0 3.3671964,11.4517 0.24740716,0.24739832 0 0 0 3.1211389,11.203699 H 2.1974464 c -0.4194322,0 -0.5966499,-0.01122 -0.6795877,-0.05272 -0.094732,-0.0474 -0.171217,-0.12325 -0.2187179,-0.214805 -0.040998,-0.07903 -0.052727,-0.250051 -0.052727,-0.661989 V 7.7258183 c 0,-0.4119285 0.011743,-0.582999 0.052726,-0.6619885 0.047504,-0.091559 0.1239879,-0.1674033 0.2187179,-0.2148045 0.082937,-0.041499 0.2601305,-0.052724 0.6795877,-0.052724 h 1.5974216 c 0.4194671,0 0.5946622,0.011211 0.6776348,0.052724 0.094727,0.047398 0.1712159,0.1232424 0.2187179,0.2148045 0.040985,0.078988 0.054679,0.2500599 0.054679,0.6619885 V 9.1220477 A 0.24740716,0.24739832 0 0 0 4.9919578,9.3700493 0.24740716,0.24739832 0 0 0 5.2399682,9.1220477 V 7.7258183 c 0,-0.4119286 0.01293,-0.6547816 -0.1093589,-0.8904624 C 5.0345115,6.6501235 4.8822581,6.5013342 4.6951264,6.4076997 4.4576441,6.2888804 4.2143351,6.3002974 3.794868,6.3002974 Z"
     id="path1-3" />
  <line
     x1="1.8502318"
     y1="7.3704925"
     x2="4.2598782"
     y2="7.3704925"
     stroke="#b39700"
     stroke-width="0.3"
     stroke-linecap="round"
     id="line16-5" />
  <line
     x1="1.8502318"
     y1="8.0163746"
     x2="4.2598782"
     y2="8.0163746"
     stroke="#b39700"
     stroke-width="0.3"
     stroke-linecap="round"
     id="line17-6" />
  <line
     x1="1.8502318"
     y1="8.6622572"
     x2="4.2598782"
     y2="8.6622572"
     stroke="#b39700"
     stroke-width="0.3"
     stroke-linecap="round"
     id="line18-2" />
  <line
     x1="1.8502318"
     y1="9.3081388"
     x2="4.2598782"
     y2="9.3081388"
     stroke="#b39700"
     stroke-width="0.3"
     stroke-linecap="round"
     id="line19-9" />
  <line
     x1="1.8502318"
     y1="9.9540215"
     x2="3.7499528"
     y2="9.9540215"
     stroke="#b39700"
     stroke-width="0.3"
     stroke-linecap="round"
     id="line20-1" />
  <line
     x1="1.8502318"
     y1="10.599903"
     x2="3.0000629"
     y2="10.599903"
     stroke="#b39700"
     stroke-width="0.3"
     stroke-linecap="round"
     id="line21-2" />
  <path
     style="color:#000000;fill:#000000;stroke-width:1.0;stroke-linecap:round;stroke-linejoin:round;-inkscape-stroke:none"
     d="M 4.493984,17.866441 A 0.24740716,0.24739832 0 0 1 4.2459736,17.618439 v -0.880698 l -0.3280767,0.322206 a 0.24740716,0.24739832 0 0 1 -0.3495581,-0.0039 0.24740716,0.24739832 0 0 1 0.00195,-0.349545 l 0.7440313,-0.728382 0.00195,-0.0019 a 0.24740716,0.24739832 0 0 1 0,-0.002 0.24740716,0.24739832 0 0 1 0.00195,0 0.24740716,0.24739832 0 0 1 0.00195,-0.0019 0.24740716,0.24739832 0 0 1 0.099607,-0.04101 0.24740716,0.24739832 0 0 1 0.072255,-0.03124 0.24740716,0.24739832 0 0 1 0.00195,0 0.24740716,0.24739832 0 0 1 0.00195,0 0.24740716,0.24739832 0 0 1 0.072255,0.03124 0.24740716,0.24739832 0 0 1 0.097642,0.04101 l 0.00391,0.0039 a 0.24740716,0.24739832 0 0 1 0.00195,0.0019 l 0.7440345,0.728382 a 0.24740716,0.24739832 0 0 1 0.00391,0.349546 0.24740716,0.24739832 0 0 1 -0.3515109,0.0039 l -0.328081,-0.322211 v 0.880698 A 0.24740716,0.24739832 0 0 1 4.493984,17.866441 Z"
     id="path2-3" />
  <path
     style="color:#000000;fill:#000000;stroke-width:1.0;stroke-linecap:round;stroke-linejoin:round;-inkscape-stroke:none"
     d="m 2.1974464,12.300297 c -0.4194572,0 -0.662775,-0.01143 -0.9002584,0.107403 -0.1871233,0.09363 -0.34132949,0.242421 -0.43743572,0.427656 -0.12228066,0.235679 -0.10935894,0.478534 -0.10935894,0.890462 v 2.548363 c 0,0.411938 -0.0129073,0.654785 0.10935894,0.890462 0.096108,0.185244 0.25031482,0.334032 0.43743572,0.427657 0.237482,0.118839 0.4808262,0.107402 0.9002584,0.107402 H 3.1211389 A 0.24740716,0.24739832 0 0 0 3.3671964,17.4517 0.24740716,0.24739832 0 0 0 3.1211389,17.203699 H 2.1974464 c -0.4194322,0 -0.5966499,-0.01122 -0.6795877,-0.05272 -0.094732,-0.0474 -0.171217,-0.12325 -0.2187179,-0.214805 -0.040998,-0.07903 -0.052727,-0.250051 -0.052727,-0.661989 v -2.548363 c 0,-0.411928 0.011743,-0.582999 0.052726,-0.661988 0.047504,-0.09156 0.1239879,-0.167403 0.2187179,-0.214805 0.082937,-0.0415 0.2601305,-0.05272 0.6795877,-0.05272 h 1.5974216 c 0.4194671,0 0.5946622,0.01121 0.6776348,0.05272 0.094727,0.0474 0.1712159,0.123243 0.2187179,0.214805 0.040985,0.07899 0.054679,0.25006 0.054679,0.661988 v 1.39623 a 0.24740716,0.24739832 0 0 0 0.2460587,0.248001 0.24740716,0.24739832 0 0 0 0.2480104,-0.248001 v -1.39623 c 0,-0.411928 0.01293,-0.654781 -0.1093589,-0.890462 C 5.0345115,12.650124 4.8822581,12.501334 4.6951264,12.4077 4.4576441,12.28888 4.2143351,12.300297 3.794868,12.300297 Z"
     id="path1-6" />
  <line
     x1="1.8502318"
     y1="13.370493"
     x2="4.2598782"
     y2="13.370493"
     stroke="#000000"
     stroke-width="0.3"
     stroke-linecap="round"
     id="line16-0" />
  <line
     x1="1.8502318"
     y1="14.016375"
     x2="4.2598782"
     y2="14.016375"
     stroke="#000000"
     stroke-width="0.3"
     stroke-linecap="round"
     id="line17-62" />
  <line
     x1="1.8502318"
     y1="14.662257"
     x2="4.2598782"
     y2="14.662257"
     stroke="#000000"
     stroke-width="0.3"
     stroke-linecap="round"
     id="line18-6" />
  <line
     x1="1.8502318"
     y1="15.308139"
     x2="4.2598782"
     y2="15.308139"
     stroke="#000000"
     stroke-width="0.3"
     stroke-linecap="round"
     id="line19-1" />
  <line
     x1="1.8502318"
     y1="15.954021"
     x2="3.7499528"
     y2="15.954021"
     stroke="#000000"
     stroke-width="0.3"
     stroke-linecap="round"
     id="line20-8" />
  <line
     x1="1.8502318"
     y1="16.599903"
     x2="3.0000629"
     y2="16.599903"
     stroke="#000000"
     stroke-width="0.3"
     stroke-linecap="round"
     id="line21-7" />
</svg>
