<?xml version="1.0" encoding="UTF-8" standalone="no"?>
<svg height="600" width="200" 
   viewBox="-51.2 -51.2 153.6 460.8"
   enable-background="new 0 0 512 512"
   stroke-width="5.632"
   xmlns="http://www.w3.org/2000/svg"
   xmlns:svg="http://www.w3.org/2000/svg">

<g transform="matrix(0.29348326,0,0,0.28067199,-49.531463,-46.266271)"> 
   <g fill="#964b00" stroke="#964b00"> 
   <path d="m 23.3,94.7 v 280.5 c 0,46.8 77.5,82.1 180.3,82.1 9.8,0 19.6,-0.3 29.1,-1 6.7,-0.5 11.8,-6.3 11.4,-13.1 -0.5,-6.7 -6.3,-11.7 -13.1,-11.4 -9,0.6 -18.2,1 -27.4,1 -91.8,0 -155.8,-30.4 -155.8,-57.6 v -51 c 30.7,24.1 87.7,39.6 155.8,39.6 6.2,0 12.5,-0.1 18.6,-0.4 6.8,-0.3 12,-6 11.7,-12.8 -0.3,-6.8 -6,-12 -12.8,-11.7 -5.8,0.3 -11.7,0.4 -17.5,0.4 -91.8,0 -155.8,-30.4 -155.8,-57.6 v -50.9 c 30.7,24.1 87.7,39.6 155.8,39.6 102.8,0 180.3,-35.3 180.3,-82.1 V 94.7 C 383.9,47.9 306.4,12.6 203.6,12.6 100.8,12.5 23.3,47.9 23.3,94.7 Z m 180.3,151.1 c -91.8,0 -155.8,-30.4 -155.8,-57.6 v -51 c 30.7,24.1 87.7,39.6 155.8,39.6 68.1,0 125.1,-15.5 155.8,-39.6 v 51 c 0.1,27.3 -63.9,57.6 -155.8,57.6 z M 359.5,94.7 c 0,27.3 -64,57.6 -155.8,57.6 -91.8,0 -155.9,-30.4 -155.9,-57.6 0,-27.2 64,-57.7 155.8,-57.7 91.8,0 155.9,30.4 155.9,57.7 z"
   id="path1" />
   <path
   d="m 371.7,265.5 c -64.5,0 -117,52.5 -117,117 0,64.5 52.5,117 117,117 64.5,0 117,-52.5 117,-117 0,-64.5 -52.5,-117 -117,-117 z m 0,209.5 c -51,0 -92.5,-41.5 -92.5,-92.5 0,-51 41.5,-92.5 92.5,-92.5 51,0 92.5,41.5 92.5,92.5 0,51 -41.5,92.5 -92.5,92.5 z"
   id="path2" />
   <path
   d="m 380,327 c -4.7,-4.3 -11.8,-4.3 -16.5,0 l -32.6,29.8 c -5,4.6 -5.4,12.3 -0.8,17.3 4.6,5 12.3,5.4 17.3,0.8 l 12.1,-11.1 V 427 c 0,6.8 5.5,12.3 12.3,12.3 6.8,0 12.2,-5.5 12.2,-12.3 v -63.2 l 12.1,11.1 c 2.3,2.1 5.3,3.2 8.3,3.2 3.3,0 6.6,-1.3 9.1,-4 4.6,-5 4.2,-12.7 -0.8,-17.3 z"
   id="path3" />
   </g> 
</g>
<g transform="matrix(0.29348326,0,0,0.28067199,-49.531463,107.33397)"> 
   <g fill="#b39700" stroke="#b39700">  
   <path d="m 23.3,94.7 v 280.5 c 0,46.8 77.5,82.1 180.3,82.1 9.8,0 19.6,-0.3 29.1,-1 6.7,-0.5 11.8,-6.3 11.4,-13.1 -0.5,-6.7 -6.3,-11.7 -13.1,-11.4 -9,0.6 -18.2,1 -27.4,1 -91.8,0 -155.8,-30.4 -155.8,-57.6 v -51 c 30.7,24.1 87.7,39.6 155.8,39.6 6.2,0 12.5,-0.1 18.6,-0.4 6.8,-0.3 12,-6 11.7,-12.8 -0.3,-6.8 -6,-12 -12.8,-11.7 -5.8,0.3 -11.7,0.4 -17.5,0.4 -91.8,0 -155.8,-30.4 -155.8,-57.6 v -50.9 c 30.7,24.1 87.7,39.6 155.8,39.6 102.8,0 180.3,-35.3 180.3,-82.1 V 94.7 C 383.9,47.9 306.4,12.6 203.6,12.6 100.8,12.5 23.3,47.9 23.3,94.7 Z m 180.3,151.1 c -91.8,0 -155.8,-30.4 -155.8,-57.6 v -51 c 30.7,24.1 87.7,39.6 155.8,39.6 68.1,0 125.1,-15.5 155.8,-39.6 v 51 c 0.1,27.3 -63.9,57.6 -155.8,57.6 z M 359.5,94.7 c 0,27.3 -64,57.6 -155.8,57.6 -91.8,0 -155.9,-30.4 -155.9,-57.6 0,-27.2 64,-57.7 155.8,-57.7 91.8,0 155.9,30.4 155.9,57.7 z"
   id="path1-5" />
   <path d="m 371.7,265.5 c -64.5,0 -117,52.5 -117,117 0,64.5 52.5,117 117,117 64.5,0 117,-52.5 117,-117 0,-64.5 -52.5,-117 -117,-117 z m 0,209.5 c -51,0 -92.5,-41.5 -92.5,-92.5 0,-51 41.5,-92.5 92.5,-92.5 51,0 92.5,41.5 92.5,92.5 0,51 -41.5,92.5 -92.5,92.5 z"
   id="path2-3" />
   <path d="m 380,327 c -4.7,-4.3 -11.8,-4.3 -16.5,0 l -32.6,29.8 c -5,4.6 -5.4,12.3 -0.8,17.3 4.6,5 12.3,5.4 17.3,0.8 l 12.1,-11.1 V 427 c 0,6.8 5.5,12.3 12.3,12.3 6.8,0 12.2,-5.5 12.2,-12.3 v -63.2 l 12.1,11.1 c 2.3,2.1 5.3,3.2 8.3,3.2 3.3,0 6.6,-1.3 9.1,-4 4.6,-5 4.2,-12.7 -0.8,-17.3 z"
   id="path3-5" /> 
   </g>
</g>

<g transform="matrix(0.29348326,0,0,0.28067199,-49.531463,260.93396)"> 
   <g fill="#000000" stroke="#000000"> 
   <path d="m 23.3,94.7 v 280.5 c 0,46.8 77.5,82.1 180.3,82.1 9.8,0 19.6,-0.3 29.1,-1 6.7,-0.5 11.8,-6.3 11.4,-13.1 -0.5,-6.7 -6.3,-11.7 -13.1,-11.4 -9,0.6 -18.2,1 -27.4,1 -91.8,0 -155.8,-30.4 -155.8,-57.6 v -51 c 30.7,24.1 87.7,39.6 155.8,39.6 6.2,0 12.5,-0.1 18.6,-0.4 6.8,-0.3 12,-6 11.7,-12.8 -0.3,-6.8 -6,-12 -12.8,-11.7 -5.8,0.3 -11.7,0.4 -17.5,0.4 -91.8,0 -155.8,-30.4 -155.8,-57.6 v -50.9 c 30.7,24.1 87.7,39.6 155.8,39.6 102.8,0 180.3,-35.3 180.3,-82.1 V 94.7 C 383.9,47.9 306.4,12.6 203.6,12.6 100.8,12.5 23.3,47.9 23.3,94.7 Z m 180.3,151.1 c -91.8,0 -155.8,-30.4 -155.8,-57.6 v -51 c 30.7,24.1 87.7,39.6 155.8,39.6 68.1,0 125.1,-15.5 155.8,-39.6 v 51 c 0.1,27.3 -63.9,57.6 -155.8,57.6 z M 359.5,94.7 c 0,27.3 -64,57.6 -155.8,57.6 -91.8,0 -155.9,-30.4 -155.9,-57.6 0,-27.2 64,-57.7 155.8,-57.7 91.8,0 155.9,30.4 155.9,57.7 z"
   id="path1-5-1" />
   <path d="m 371.7,265.5 c -64.5,0 -117,52.5 -117,117 0,64.5 52.5,117 117,117 64.5,0 117,-52.5 117,-117 0,-64.5 -52.5,-117 -117,-117 z m 0,209.5 c -51,0 -92.5,-41.5 -92.5,-92.5 0,-51 41.5,-92.5 92.5,-92.5 51,0 92.5,41.5 92.5,92.5 0,51 -41.5,92.5 -92.5,92.5 z"
   id="path2-3-2" />
   <path d="m 380,327 c -4.7,-4.3 -11.8,-4.3 -16.5,0 l -32.6,29.8 c -5,4.6 -5.4,12.3 -0.8,17.3 4.6,5 12.3,5.4 17.3,0.8 l 12.1,-11.1 V 427 c 0,6.8 5.5,12.3 12.3,12.3 6.8,0 12.2,-5.5 12.2,-12.3 v -63.2 l 12.1,11.1 c 2.3,2.1 5.3,3.2 8.3,3.2 3.3,0 6.6,-1.3 9.1,-4 4.6,-5 4.2,-12.7 -0.8,-17.3 z"
   id="path3-5-7" /> 
   </g>
</g>

</svg>
