<?xml version="1.0" encoding="UTF-8"?>
<svg
   width="200"
   height="600"
   viewBox="0 0 200 600"
   xmlns="http://www.w3.org/2000/svg"
   xmlns:svg="http://www.w3.org/2000/svg">
<path
   style="fill:#964b00;stroke-width:2.60936"
   d="M 157.59207,36.30468 H 42.405319 c -3.368659,0 -6.100639,2.734645 -6.100639,6.098155 V 157.59716 c 0,3.36612 2.73198,6.09816 6.100639,6.09816 H 157.59468 c 3.36865,0 6.10063,-2.73204 6.10063,-6.09816 V 42.402835 c -0.003,-3.36351 -2.73459,-6.098155 -6.10324,-6.098155 z m -6.09542,12.19631 V 64.128654 H 48.50074 V 48.50099 Z M 48.50074,151.4964 V 76.330182 H 151.49665 V 151.50162 H 48.50074 Z"
   id="path1"
   fill="#964b00"
   stroke="#964b00" />
<rect
   x="52.143379"
   y="52.649925"
   style="fill:#964b00;stroke-width:2.60936"
   width="9.1483498"
   height="9.1459274"
   id="rect1"
   fill="#964b00"
   stroke="#964b00" />
<rect
   x="65.863297"
   y="52.649925"
   style="fill:#964b00;stroke-width:2.60936"
   width="9.1483498"
   height="9.1459274"
   id="rect2"
   fill="#964b00"
   stroke="#964b00" />
<rect
   x="79.585823"
   y="52.649925"
   style="fill:#964b00;stroke-width:2.60936"
   width="9.1457405"
   height="9.1459274"
   id="rect3"
   fill="#964b00"
   stroke="#964b00" /><path
   style="fill:#b39700;stroke-width:2.60936"
   d="M 157.59207,236.30468 H 42.405319 c -3.368659,0 -6.100639,2.73464 -6.100639,6.09815 v 115.19433 c 0,3.36612 2.73198,6.09816 6.100639,6.09816 H 157.59468 c 3.36865,0 6.10063,-2.73204 6.10063,-6.09816 V 242.40283 c -0.003,-3.36351 -2.73459,-6.09815 -6.10324,-6.09815 z m -6.09542,12.19631 v 15.62766 H 48.50074 V 248.50099 Z M 48.50074,351.4964 v -75.16622 h 102.99591 v 75.17144 H 48.50074 Z"
   id="path1-3"
   fill="#b39700"
   stroke="#b39700" /><rect
   x="52.143379"
   y="252.64992"
   style="fill:#b39700;stroke-width:2.60936"
   width="9.1483498"
   height="9.1459274"
   id="rect1-6"
   fill="#b39700"
   stroke="#b39700" /><rect
   x="65.863297"
   y="252.64992"
   style="fill:#b39700;stroke-width:2.60936"
   width="9.1483498"
   height="9.1459274"
   id="rect2-7"
   fill="#b39700"
   stroke="#b39700" /><rect
   x="79.585823"
   y="252.64992"
   style="fill:#b39700;stroke-width:2.60936"
   width="9.1457405"
   height="9.1459274"
   id="rect3-5"
   fill="#b39700"
   stroke="#b39700" /><path
   style="fill:#000000;stroke-width:2.60936"
   d="M 157.59207,436.30468 H 42.405319 c -3.368659,0 -6.100639,2.73464 -6.100639,6.09815 v 115.19433 c 0,3.36612 2.73198,6.09816 6.100639,6.09816 H 157.59468 c 3.36865,0 6.10063,-2.73204 6.10063,-6.09816 V 442.40283 c -0.003,-3.36351 -2.73459,-6.09815 -6.10324,-6.09815 z m -6.09542,12.19631 v 15.62766 H 48.50074 V 448.50099 Z M 48.50074,551.4964 v -75.16622 h 102.99591 v 75.17144 H 48.50074 Z"
   id="path1-35"
   fill="#000000"
   stroke="#000000" /><rect
   x="52.143379"
   y="452.64993"
   style="fill:#000000;stroke-width:2.60936"
   width="9.1483498"
   height="9.1459274"
   id="rect1-62"
   fill="#000000"
   stroke="#000000" /><rect
   x="65.863297"
   y="452.64993"
   style="fill:#000000;stroke-width:2.60936"
   width="9.1483498"
   height="9.1459274"
   id="rect2-9"
   fill="#000000"
   stroke="#000000" /><rect
   x="79.585823"
   y="452.64993"
   style="fill:#000000;stroke-width:2.60936"
   width="9.1457405"
   height="9.1459274"
   id="rect3-1"
   fill="#000000"
   stroke="#000000" />
</svg>
